<svg id="SvgjsSvg1019" width="100%" height="100%" xmlns="http://www.w3.org/2000/svg" version="1.1" xlink="http://www.w3.org/1999/xlink" xmlns:svgjs="http://svgjs.com/svgjs" preserveAspectRatio="xMidYMid meet" viewBox="1.0149454965358018e-7 1.3091832329337194e-7 568.8010864257812 106.6942367553711" overflow="visible"><defs id="SvgjsDefs1020"></defs><g id="SvgjsG1021" transform="scale(1.2311688311688311)" opacity="1"><g id="SvgjsG1022" class="lpjHNgWJA" transform="translate(-1.5002177790823292, -1.702559010349602) scale(0.8830005200130071)" light-content="false" non-strokable="true" fill="#363636"><path d="M48 2.732l37.301 21.536a6 6 0 0 1 3 5.196v43.072a6 6 0 0 1-3 5.196L48 99.268a6 6 0 0 1-6 0L4.699 77.732a6 6 0 0 1-3-5.196V29.464a6 6 0 0 1 3-5.196L42 2.732a6 6 0 0 1 6 0z" stroke="#363636" stroke-width="2" fill="none"></path></g><g id="SvgjsG1023" class="text" transform="translate(38.86199409955549, 58.280788807617796) scale(1)" light-content="false" fill="#363636"><path d="M-21.37 -2.28L-25.08 -1.72L-25.08 0L-11.29 0L-11.29 -1.85L-17.54 -2.28L-17.54 -15.6L-8.19 -15.43L-7.63 -12.2L-5.43 -12.2L-5.43 -21.07L-7.41 -21.07L-8.19 -17.93L-17.54 -17.75L-17.54 -30.51L-4.91 -30.25L-3.92 -26.59L-1.98 -26.63L-2.37 -32.66L-24.91 -32.66L-24.91 -30.73L-21.37 -30.38Z M11.68 -2.33L7.37 -1.72L7.37 0L20.04 0L20.04 -1.72L15.51 -2.33L15.51 -13.36L24.22 -30.21L27.02 -30.73L27.02 -32.66L17.5 -32.66L17.5 -30.73L21.07 -30.34L14.82 -17.71L13.88 -15.51L12.8 -17.67L5.9 -30.38L9.22 -30.73L9.22 -32.66L-0.95 -32.66L-0.95 -30.73L1.51 -30.38L11.68 -13.4Z"></path></g><g id="SvgjsG1024" class="text" transform="translate(281.32082012031697, 44.032541046369175) scale(1)" light-content="false" fill="#363636"><path d="M-175.37 -2.36L-179.21 -1.78L-179.21 0L-164.94 0L-164.94 -1.92L-171.4 -2.36L-171.4 -16.14L-161.73 -15.96L-161.15 -12.62L-158.88 -12.62L-158.88 -21.8L-160.93 -21.8L-161.73 -18.54L-171.4 -18.37L-171.4 -31.56L-158.34 -31.29L-157.32 -27.51L-155.31 -27.55L-155.71 -33.79L-179.03 -33.79L-179.03 -31.78L-175.37 -31.43Z M-148.22 -2.36L-152.06 -1.78L-152.06 0L-140.33 0L-140.33 -1.78L-144.26 -2.36L-144.26 -31.43L-140.51 -31.78L-140.51 -33.79L-151.97 -33.79L-151.97 -31.78L-148.22 -31.43Z M-103.29 -31.61L-103.29 -33.79L-113.5 -33.79L-113.5 -31.61L-109.84 -31.21L-109.84 -3.66L-112.96 -9.58L-127.85 -33.79L-135.43 -33.79L-135.43 -31.56L-131.82 -31.25L-131.82 -2.36L-135.56 -1.78L-135.56 0L-124.6 0L-124.6 -1.78L-128.92 -2.36L-128.92 -29.2L-125.85 -23.09L-111.18 0L-106.94 0L-106.94 -31.25Z M-95.58 -2.36L-99.32 -1.78L-99.32 0L-93.53 0C-92.01 0 -90.55 0.04 -89.16 0.13C-87.55 0.19 -86.44 0.22 -85.81 0.22C-82.57 0.22 -79.68 -0.51 -77.12 -1.96C-74.57 -3.42 -72.56 -5.51 -71.1 -8.22C-69.65 -10.94 -68.92 -14.13 -68.92 -17.79C-68.92 -22.96 -70.27 -26.97 -72.98 -29.82C-75.68 -32.68 -79.74 -34.1 -85.15 -34.1C-85.74 -34.1 -86.4 -34.09 -87.13 -34.06C-87.86 -34.03 -88.4 -34 -88.76 -33.97C-90.6 -33.85 -92.22 -33.79 -93.62 -33.79L-99.23 -33.79L-99.23 -31.78L-95.58 -31.43ZM-86.13 -2.01C-87.97 -2.01 -89.8 -2.21 -91.61 -2.63L-91.61 -31.38C-90.03 -31.68 -88.16 -31.83 -85.99 -31.83C-81.92 -31.83 -78.75 -30.55 -76.47 -28C-74.2 -25.44 -73.06 -21.69 -73.06 -16.76C-73.06 -13.49 -73.65 -10.75 -74.83 -8.54C-76 -6.32 -77.57 -4.68 -79.55 -3.61C-81.53 -2.54 -83.72 -2.01 -86.13 -2.01Z M-43.33 -2.41L-47.79 -1.78L-47.79 0L-34.68 0L-34.68 -1.78L-39.36 -2.41L-39.36 -13.82L-30.36 -31.25L-27.46 -31.78L-27.46 -33.79L-37.31 -33.79L-37.31 -31.78L-33.61 -31.38L-40.08 -18.32L-41.06 -16.05L-42.17 -18.28L-49.3 -31.43L-45.87 -31.78L-45.87 -33.79L-56.39 -33.79L-56.39 -31.78L-53.85 -31.43L-43.33 -13.86Z M-1.81 -31.99C-3.93 -33.4 -6.4 -34.1 -9.23 -34.1C-12.02 -34.1 -14.61 -33.45 -16.98 -32.14C-19.48 -30.74 -21.48 -28.65 -22.98 -25.86C-24.48 -23.06 -25.23 -19.76 -25.23 -15.96C-25.23 -12.78 -24.63 -9.93 -23.43 -7.42C-22.22 -4.91 -20.51 -2.94 -18.3 -1.52C-16.09 -0.09 -13.52 0.62 -10.61 0.62C-7.76 0.62 -5.16 -0.1 -2.81 -1.56C-0.46 -3.02 1.4 -5.13 2.76 -7.89C4.13 -10.65 4.81 -13.92 4.81 -17.7C4.81 -20.85 4.24 -23.66 3.1 -26.15C1.95 -28.63 0.32 -30.57 -1.81 -31.99ZM-15.71 -30.07C-14.09 -31.3 -12.2 -31.92 -10.03 -31.92C-7.86 -31.92 -5.98 -31.25 -4.39 -29.91C-2.8 -28.57 -1.6 -26.78 -0.78 -24.52C0.04 -22.26 0.45 -19.81 0.45 -17.16C0.45 -13.95 0.03 -11.17 -0.8 -8.83C-1.63 -6.48 -2.83 -4.68 -4.39 -3.43C-5.95 -2.18 -7.8 -1.56 -9.94 -1.56C-12.14 -1.56 -14.06 -2.24 -15.71 -3.59C-17.36 -4.94 -18.63 -6.75 -19.5 -9C-20.38 -11.26 -20.82 -13.73 -20.82 -16.4C-20.82 -19.61 -20.37 -22.39 -19.48 -24.72C-18.59 -27.05 -17.33 -28.83 -15.71 -30.07Z M40.03 -31.78L40.03 -33.79L29.69 -33.79L29.69 -31.78L33.57 -31.38L33.57 -14.76C33.57 -5.93 30.63 -1.52 24.74 -1.52C21.56 -1.52 19.1 -2.47 17.36 -4.37C15.62 -6.27 14.76 -9.52 14.76 -14.13L14.76 -31.38L18.59 -31.78L18.59 -33.79L7.36 -33.79L7.36 -31.78L10.79 -31.43L10.74 -14.27C10.74 -9.21 11.78 -5.47 13.84 -3.03C15.91 -0.59 19.3 0.62 24.03 0.62C27.95 0.62 31.03 -0.64 33.28 -3.17C35.52 -5.69 36.64 -9.55 36.64 -14.76L36.64 -31.38Z M64.08 -32.07C62.11 -33.43 59.29 -34.1 55.63 -34.1C54.36 -34.1 52.89 -34.04 51.22 -33.92C50.33 -33.84 49.59 -33.79 48.99 -33.79L43.38 -33.79L43.38 -31.56L47.03 -31.25L47.03 -2.36L42.84 -1.78L42.84 0L55.59 0L55.59 -1.78L51 -2.36L51 -14.71C52.81 -14.71 54.12 -14.73 54.92 -14.76C56.26 -14.87 57.52 -14.07 58.71 -12.35C59.9 -10.62 61.24 -8.22 62.72 -5.13C63.61 -3.28 64.3 -1.97 64.77 -1.18C65.25 -0.39 65.68 0 66.07 0L72.17 0L72.17 -1.78L69.72 -2.36C69.3 -2.45 68.85 -2.88 68.36 -3.63C67.87 -4.39 67.17 -5.59 66.24 -7.22C65.03 -9.45 63.94 -11.25 62.99 -12.62C62.04 -13.98 61.04 -14.89 60 -15.34L59.65 -15.51C61.9 -16.23 63.7 -17.43 65.04 -19.12C66.38 -20.82 67.05 -22.79 67.05 -25.05C67.05 -28.38 66.06 -30.72 64.08 -32.07ZM53.9 -31.87C54.43 -31.87 54.82 -31.89 55.05 -31.92C57.88 -32.04 59.9 -31.46 61.12 -30.18C62.34 -28.9 62.95 -27.04 62.95 -24.61C62.95 -22.05 62.28 -20.13 60.94 -18.83C59.6 -17.54 57.7 -16.9 55.23 -16.9C53.21 -16.9 51.8 -16.94 51 -17.03L51 -31.56C51.53 -31.71 52.5 -31.81 53.9 -31.87Z M79.26 -0.11C81.22 0.29 83.21 0.49 85.23 0.49C88.5 0.49 91.19 -0.27 93.3 -1.78C95.41 -3.3 96.47 -5.59 96.47 -8.65C96.47 -10.22 96.02 -11.61 95.11 -12.82C94.2 -14.02 93.11 -15.04 91.83 -15.87C90.55 -16.7 88.85 -17.68 86.71 -18.81C84.24 -20.06 82.36 -21.24 81.07 -22.36C79.77 -23.47 79.13 -24.8 79.13 -26.35C79.13 -27.68 79.48 -28.78 80.17 -29.64C80.87 -30.51 81.73 -31.13 82.74 -31.52C83.75 -31.9 84.74 -32.1 85.72 -32.1C86.85 -32.1 87.9 -31.98 88.87 -31.74C89.83 -31.5 90.58 -31.15 91.12 -30.67L92.68 -26.44L94.46 -26.44L94.46 -32.41C93.69 -32.85 92.58 -33.25 91.12 -33.59C89.66 -33.93 87.95 -34.1 85.99 -34.1C84.36 -34.1 82.74 -33.81 81.13 -33.21C79.53 -32.62 78.18 -31.69 77.1 -30.42C76.01 -29.16 75.47 -27.58 75.47 -25.68C75.47 -24.13 75.89 -22.76 76.72 -21.58C77.55 -20.39 78.59 -19.37 79.84 -18.52C81.09 -17.68 82.68 -16.75 84.61 -15.74C86.42 -14.76 87.86 -13.91 88.93 -13.2C90 -12.48 90.9 -11.66 91.63 -10.72C92.36 -9.79 92.72 -8.72 92.72 -7.53C92.72 -5.54 92.03 -4.05 90.65 -3.05C89.27 -2.06 87.63 -1.56 85.72 -1.56C84.24 -1.56 82.84 -1.73 81.53 -2.07C80.23 -2.41 79.17 -3 78.37 -3.83L77.08 -8.2L75.25 -8.2L75.25 -1.34C75.96 -0.92 77.3 -0.51 79.26 -0.11Z M104.67 -2.36L100.93 -1.78L100.93 0L125.04 0L126.02 -6.78L124.06 -7.27L121.92 -2.59L108.59 -2.23L108.59 -16.67L116.93 -16.54L117.55 -13.06L119.65 -13.06L119.65 -22.42L117.55 -22.42L116.93 -18.99L108.59 -18.81L108.59 -31.65L120.99 -31.38L122.01 -27.55L124.29 -27.55L123.66 -33.79L101.02 -33.79L101.02 -31.78L104.67 -31.43Z M133.51 -2.36L129.77 -1.78L129.77 0L152.5 0L153.93 -7.13L152.1 -8.02L149.52 -2.76L137.44 -2.27L137.48 -31.25L141.45 -31.56L141.45 -33.79L129.86 -33.79L129.86 -31.56L133.51 -31.25Z M160.62 -2.36L156.78 -1.78L156.78 0L171.05 0L171.05 -1.92L164.58 -2.36L164.58 -16.14L174.26 -15.96L174.84 -12.62L177.11 -12.62L177.11 -21.8L175.06 -21.8L174.26 -18.54L164.58 -18.37L164.58 -31.56L177.65 -31.29L178.67 -27.51L180.68 -27.55L180.28 -33.79L156.96 -33.79L156.96 -31.78L160.62 -31.43Z"></path></g><rect id="SvgjsRect1025" width="55" height="1.485955610960226" fill="#363636" transform="translate(102.22732713199383, 65.14057909546892) scale(1)" light-content="false"></rect><g id="SvgjsG1026" class="text" transform="translate(277.54761985820153, 73.60193189752934) scale(1)" light-content="false" fill="#363636"><path d="M-94.46 -15.6L-96.69 -15.6L-96.69 -8.89L-105.65 -8.89L-105.65 -15.6L-107.88 -15.6L-107.88 0L-105.65 0L-105.65 -6.95L-96.69 -6.95L-96.69 0L-94.46 0Z M-81.99 -10.72C-82.86 -11.52 -84.11 -11.92 -85.75 -11.92C-86.7 -11.92 -87.6 -11.79 -88.44 -11.53C-89.29 -11.27 -90.02 -10.9 -90.63 -10.41L-89.74 -8.8C-89.28 -9.19 -88.71 -9.5 -88.04 -9.73C-87.37 -9.96 -86.69 -10.07 -85.99 -10.07C-84.95 -10.07 -84.16 -9.83 -83.63 -9.34C-83.09 -8.85 -82.83 -8.14 -82.83 -7.22L-82.83 -6.8L-86.22 -6.8C-87.86 -6.8 -89.07 -6.48 -89.83 -5.85C-90.58 -5.22 -90.96 -4.38 -90.96 -3.34C-90.96 -2.3 -90.57 -1.46 -89.77 -0.82C-88.98 -0.19 -87.92 0.13 -86.59 0.13C-85.69 0.13 -84.9 -0.01 -84.24 -0.3C-83.58 -0.59 -83.07 -1.01 -82.72 -1.56L-82.72 0L-80.69 0L-80.69 -7.13C-80.69 -8.72 -81.12 -9.92 -81.99 -10.72ZM-84.12 -2.06C-84.71 -1.7 -85.42 -1.52 -86.24 -1.52C-87.05 -1.52 -87.69 -1.69 -88.15 -2.03C-88.61 -2.37 -88.85 -2.84 -88.85 -3.43C-88.85 -4.65 -87.94 -5.26 -86.13 -5.26L-82.83 -5.26L-82.83 -3.61C-83.09 -2.94 -83.53 -2.43 -84.12 -2.06Z M-76.83 -11.81L-76.83 0L-74.87 0L-67.65 -8.6L-67.65 0L-65.51 0L-65.51 -11.81L-67.45 -11.81L-74.69 -3.21L-74.69 -11.81ZM-73.87 -14.14C-73.26 -13.62 -72.4 -13.35 -71.3 -13.35C-70.22 -13.35 -69.36 -13.62 -68.74 -14.14C-68.12 -14.67 -67.8 -15.43 -67.78 -16.43L-69.28 -16.43C-69.29 -15.88 -69.48 -15.44 -69.85 -15.1C-70.23 -14.77 -70.72 -14.6 -71.33 -14.6C-71.94 -14.6 -72.42 -14.77 -72.79 -15.1C-73.15 -15.44 -73.34 -15.88 -73.35 -16.43L-74.8 -16.43C-74.79 -15.43 -74.48 -14.67 -73.87 -14.14Z M-49.35 -1.87L-51.15 -1.87L-51.15 -11.81L-60.31 -11.81L-60.49 -7.82C-60.6 -5.95 -60.79 -4.5 -61.07 -3.48C-61.36 -2.45 -61.88 -1.92 -62.63 -1.87L-63.26 -1.87L-63.26 2.74L-61.23 2.74L-61.23 0L-51.35 0L-51.35 2.74L-49.35 2.74ZM-58.9 -3.98C-58.71 -4.95 -58.59 -6.18 -58.53 -7.67L-58.42 -9.94L-53.29 -9.94L-53.29 -1.87L-59.91 -1.87C-59.42 -2.3 -59.09 -3.01 -58.9 -3.98Z M-46.56 -11.81L-46.56 0L-44.6 0L-37.38 -8.6L-37.38 0L-35.24 0L-35.24 -11.81L-37.18 -11.81L-44.42 -3.21L-44.42 -11.81Z M-23.17 -0.65C-22.23 -0.13 -21.15 0.13 -19.95 0.13C-18.88 0.13 -17.92 -0.09 -17.08 -0.52C-16.25 -0.96 -15.6 -1.59 -15.13 -2.41L-16.76 -3.43C-17.13 -2.87 -17.59 -2.44 -18.14 -2.16C-18.69 -1.88 -19.3 -1.74 -19.97 -1.74C-20.74 -1.74 -21.44 -1.91 -22.06 -2.25C-22.67 -2.59 -23.15 -3.08 -23.5 -3.71C-23.85 -4.34 -24.03 -5.07 -24.03 -5.91C-24.03 -6.72 -23.85 -7.45 -23.5 -8.08C-23.15 -8.71 -22.67 -9.2 -22.06 -9.54C-21.44 -9.88 -20.74 -10.05 -19.97 -10.05C-19.3 -10.05 -18.69 -9.91 -18.14 -9.63C-17.59 -9.35 -17.13 -8.92 -16.76 -8.36L-15.13 -9.41C-15.6 -10.22 -16.25 -10.85 -17.08 -11.28C-17.92 -11.71 -18.88 -11.92 -19.95 -11.92C-21.15 -11.92 -22.23 -11.67 -23.17 -11.16C-24.11 -10.64 -24.85 -9.93 -25.39 -9.02C-25.92 -8.1 -26.19 -7.07 -26.19 -5.91C-26.19 -4.75 -25.92 -3.71 -25.39 -2.8C-24.85 -1.88 -24.11 -1.17 -23.17 -0.65Z M-2.03 -3.25C-2.03 -4.78 -2.79 -5.74 -4.32 -6.13C-3.73 -6.37 -3.27 -6.71 -2.93 -7.17C-2.6 -7.62 -2.43 -8.16 -2.43 -8.78C-2.43 -9.75 -2.82 -10.49 -3.61 -11.02C-4.4 -11.55 -5.49 -11.81 -6.89 -11.81L-12.37 -11.81L-12.37 0L-6.69 0C-5.14 0 -3.98 -0.28 -3.2 -0.85C-2.42 -1.41 -2.03 -2.21 -2.03 -3.25ZM-10.28 -6.73L-10.28 -10.16L-7.07 -10.16C-5.4 -10.16 -4.57 -9.6 -4.57 -8.47C-4.57 -7.91 -4.78 -7.47 -5.2 -7.18C-5.63 -6.88 -6.25 -6.73 -7.07 -6.73ZM-4.84 -2.07C-5.28 -1.79 -5.95 -1.65 -6.84 -1.65L-10.28 -1.65L-10.28 -5.19L-6.71 -5.19C-5.83 -5.19 -5.19 -5.04 -4.78 -4.75C-4.37 -4.45 -4.17 -4 -4.17 -3.39C-4.17 -2.79 -4.39 -2.36 -4.84 -2.07Z M3.21 -0.65C4.15 -0.13 5.2 0.13 6.37 0.13C7.55 0.13 8.6 -0.13 9.53 -0.65C10.46 -1.17 11.19 -1.88 11.71 -2.8C12.24 -3.71 12.5 -4.75 12.5 -5.91C12.5 -7.07 12.24 -8.1 11.71 -9.02C11.19 -9.93 10.46 -10.64 9.53 -11.16C8.6 -11.67 7.55 -11.92 6.37 -11.92C5.2 -11.92 4.15 -11.67 3.21 -11.16C2.27 -10.64 1.54 -9.93 1.01 -9.02C0.49 -8.1 0.22 -7.07 0.22 -5.91C0.22 -4.75 0.49 -3.71 1.01 -2.8C1.54 -1.88 2.27 -1.17 3.21 -0.65ZM8.41 -2.26C7.81 -1.91 7.13 -1.74 6.37 -1.74C5.62 -1.74 4.94 -1.91 4.34 -2.26C3.73 -2.61 3.26 -3.1 2.91 -3.73C2.56 -4.36 2.38 -5.09 2.38 -5.91C2.38 -6.72 2.56 -7.45 2.91 -8.08C3.26 -8.71 3.73 -9.2 4.34 -9.54C4.94 -9.88 5.62 -10.05 6.37 -10.05C7.13 -10.05 7.81 -9.88 8.41 -9.54C9.02 -9.2 9.49 -8.71 9.83 -8.08C10.17 -7.45 10.34 -6.72 10.34 -5.91C10.34 -5.09 10.17 -4.36 9.83 -3.73C9.49 -3.1 9.02 -2.61 8.41 -2.26Z M15.6 -11.81L15.6 0L17.56 0L24.79 -8.6L24.79 0L26.93 0L26.93 -11.81L24.99 -11.81L17.74 -3.21L17.74 -11.81ZM18.57 -14.14C19.18 -13.62 20.03 -13.35 21.13 -13.35C22.22 -13.35 23.07 -13.62 23.69 -14.14C24.32 -14.67 24.64 -15.43 24.65 -16.43L23.16 -16.43C23.14 -15.88 22.95 -15.44 22.58 -15.1C22.21 -14.77 21.72 -14.6 21.11 -14.6C20.5 -14.6 20.01 -14.77 19.65 -15.1C19.28 -15.44 19.09 -15.88 19.08 -16.43L17.63 -16.43C17.65 -15.43 17.96 -14.67 18.57 -14.14Z M38.96 -0.65C39.9 -0.13 40.95 0.13 42.13 0.13C43.3 0.13 44.35 -0.13 45.28 -0.65C46.21 -1.17 46.94 -1.88 47.47 -2.8C47.99 -3.71 48.26 -4.75 48.26 -5.91C48.26 -7.07 47.99 -8.1 47.47 -9.02C46.94 -9.93 46.21 -10.64 45.28 -11.16C44.35 -11.67 43.3 -11.92 42.13 -11.92C40.95 -11.92 39.9 -11.67 38.96 -11.16C38.03 -10.64 37.29 -9.93 36.77 -9.02C36.24 -8.1 35.97 -7.07 35.97 -5.91C35.97 -4.75 36.24 -3.71 36.77 -2.8C37.29 -1.88 38.03 -1.17 38.96 -0.65ZM44.17 -2.26C43.56 -1.91 42.88 -1.74 42.13 -1.74C41.37 -1.74 40.69 -1.91 40.09 -2.26C39.49 -2.61 39.01 -3.1 38.66 -3.73C38.31 -4.36 38.14 -5.09 38.14 -5.91C38.14 -6.72 38.31 -7.45 38.66 -8.08C39.01 -8.71 39.49 -9.2 40.09 -9.54C40.69 -9.88 41.37 -10.05 42.13 -10.05C42.88 -10.05 43.56 -9.88 44.17 -9.54C44.77 -9.2 45.24 -8.71 45.58 -8.08C45.92 -7.45 46.09 -6.72 46.09 -5.91C46.09 -5.09 45.92 -4.36 45.58 -3.73C45.24 -3.1 44.77 -2.61 44.17 -2.26Z M60.31 -10.68C59.45 -11.17 58.47 -11.41 57.37 -11.41C56.38 -11.41 55.48 -11.2 54.68 -10.79C53.87 -10.37 53.22 -9.79 52.71 -9.03C52.82 -10.56 53.25 -11.73 54.01 -12.55C54.76 -13.37 55.92 -13.95 57.46 -14.29L62.43 -15.36L62.12 -17.32L56.73 -16.12C54.68 -15.67 53.15 -14.76 52.16 -13.38C51.16 -12.01 50.66 -10.11 50.66 -7.69C50.66 -5.19 51.21 -3.26 52.3 -1.88C53.39 -0.51 54.94 0.18 56.95 0.18C58.14 0.18 59.2 -0.07 60.13 -0.56C61.05 -1.05 61.77 -1.73 62.29 -2.62C62.8 -3.5 63.06 -4.52 63.06 -5.66C63.06 -6.78 62.82 -7.77 62.33 -8.64C61.85 -9.51 61.18 -10.19 60.31 -10.68ZM59.01 -2.12C58.42 -1.78 57.75 -1.6 56.99 -1.6C56.25 -1.6 55.58 -1.78 54.99 -2.12C54.39 -2.46 53.93 -2.93 53.59 -3.53C53.26 -4.13 53.09 -4.82 53.09 -5.59C53.09 -6.77 53.45 -7.71 54.17 -8.43C54.89 -9.14 55.83 -9.5 56.99 -9.5C58.15 -9.5 59.09 -9.14 59.8 -8.43C60.52 -7.71 60.87 -6.77 60.87 -5.59C60.87 -4.82 60.71 -4.13 60.38 -3.53C60.05 -2.93 59.6 -2.46 59.01 -2.12Z M75.45 -11.17C74.54 -11.67 73.52 -11.92 72.37 -11.92C71.5 -11.92 70.69 -11.76 69.97 -11.42C69.24 -11.09 68.64 -10.59 68.16 -9.94L68.16 -11.81L66.11 -11.81L66.11 4.32L68.25 4.32L68.25 -1.78C68.74 -1.16 69.34 -0.68 70.04 -0.36C70.75 -0.03 71.53 0.13 72.37 0.13C73.52 0.13 74.54 -0.12 75.45 -0.62C76.36 -1.13 77.07 -1.84 77.58 -2.75C78.09 -3.67 78.35 -4.72 78.35 -5.91C78.35 -7.1 78.09 -8.14 77.58 -9.05C77.07 -9.96 76.36 -10.66 75.45 -11.17ZM74.23 -2.26C73.63 -1.91 72.95 -1.74 72.2 -1.74C71.45 -1.74 70.78 -1.91 70.17 -2.26C69.56 -2.61 69.08 -3.1 68.74 -3.73C68.4 -4.36 68.23 -5.09 68.23 -5.91C68.23 -6.72 68.4 -7.44 68.75 -8.07C69.1 -8.69 69.58 -9.18 70.18 -9.53C70.78 -9.88 71.45 -10.05 72.2 -10.05C72.95 -10.05 73.63 -9.88 74.23 -9.54C74.84 -9.2 75.31 -8.71 75.66 -8.08C76.01 -7.45 76.18 -6.72 76.18 -5.91C76.18 -5.09 76.01 -4.36 75.66 -3.73C75.31 -3.1 74.84 -2.61 74.23 -2.26Z M89.3 -10.72C88.43 -11.52 87.18 -11.92 85.55 -11.92C84.6 -11.92 83.7 -11.79 82.85 -11.53C82 -11.27 81.27 -10.9 80.67 -10.41L81.56 -8.8C82.02 -9.19 82.58 -9.5 83.25 -9.73C83.92 -9.96 84.6 -10.07 85.3 -10.07C86.34 -10.07 87.13 -9.83 87.66 -9.34C88.2 -8.85 88.47 -8.14 88.47 -7.22L88.47 -6.8L85.08 -6.8C83.43 -6.8 82.23 -6.48 81.47 -5.85C80.71 -5.22 80.33 -4.38 80.33 -3.34C80.33 -2.3 80.73 -1.46 81.52 -0.82C82.32 -0.19 83.38 0.13 84.7 0.13C85.61 0.13 86.39 -0.01 87.05 -0.3C87.71 -0.59 88.22 -1.01 88.58 -1.56L88.58 0L90.61 0L90.61 -7.13C90.61 -8.72 90.17 -9.92 89.3 -10.72ZM87.17 -2.06C86.58 -1.7 85.87 -1.52 85.06 -1.52C84.24 -1.52 83.6 -1.69 83.14 -2.03C82.68 -2.37 82.45 -2.84 82.45 -3.43C82.45 -4.65 83.35 -5.26 85.17 -5.26L88.47 -5.26L88.47 -3.61C88.2 -2.94 87.77 -2.43 87.17 -2.06Z M102.49 -5.15C102.06 -5.61 101.45 -5.94 100.66 -6.15C101.31 -6.39 101.83 -6.74 102.22 -7.2C102.61 -7.66 102.8 -8.18 102.8 -8.76C102.8 -9.38 102.58 -9.94 102.15 -10.43C101.72 -10.92 101.13 -11.3 100.37 -11.57C99.61 -11.84 98.76 -11.97 97.81 -11.97C96.23 -11.97 94.72 -11.61 93.28 -10.88L93.86 -9.23C95.17 -9.84 96.41 -10.14 97.58 -10.14C98.5 -10.14 99.24 -9.99 99.78 -9.7C100.32 -9.4 100.59 -8.98 100.59 -8.45C100.59 -7.96 100.36 -7.57 99.9 -7.29C99.44 -7.01 98.81 -6.87 98.01 -6.87L96 -6.87L96 -5.33L98.16 -5.33C99.04 -5.33 99.72 -5.18 100.2 -4.88C100.68 -4.58 100.93 -4.16 100.93 -3.61C100.93 -3.02 100.63 -2.54 100.02 -2.2C99.42 -1.85 98.62 -1.67 97.6 -1.67C96.86 -1.67 96.13 -1.77 95.4 -1.97C94.67 -2.17 94.02 -2.45 93.46 -2.81L92.81 -1.18C93.47 -0.75 94.21 -0.42 95.05 -0.19C95.89 0.04 96.75 0.16 97.63 0.16C98.67 0.16 99.61 0 100.45 -0.3C101.29 -0.61 101.94 -1.03 102.42 -1.57C102.89 -2.11 103.13 -2.73 103.13 -3.43C103.13 -4.12 102.92 -4.69 102.49 -5.15Z"></path></g><rect id="SvgjsRect1027" width="55" height="1.485955610960226" fill="#363636" transform="translate(395.1755377519711, 65.14057909546892) scale(1)" light-content="false"></rect></g></svg>