<svg xmlns="http://www.w3.org/2000/svg" xmlns:xlink="http://www.w3.org/1999/xlink" style="isolation:isolate" viewBox="0 0 600 120" width="600pt" height="120pt"><defs><clipPath id="_clipPath_WrSTvxD3tv1qLuSzDNGtXRT74QPw6k4f"><rect width="600" height="120"/></clipPath></defs><g clip-path="url(#_clipPath_WrSTvxD3tv1qLuSzDNGtXRT74QPw6k4f)"><g><mask id="_mask_AjAU0tH2HMznkcVA1RTFPYkC5duTEqiz" x="-200%" y="-200%" width="400%" height="400%"><rect x="-200%" y="-200%" width="400%" height="400%" style="fill:white;"/><path d=" M 65.335 7.874 L 105.886 31.286 C 107.904 32.451 109.147 34.605 109.147 36.935 L 109.147 83.759 C 109.147 86.09 107.904 88.243 105.886 89.408 L 65.335 112.82 C 63.317 113.986 60.83 113.986 58.812 112.82 L 18.261 89.408 C 16.243 88.243 15 86.09 15 83.759 L 15 36.935 C 15 34.605 16.243 32.451 18.261 31.286 L 58.812 7.874 C 60.83 6.709 63.317 6.709 65.335 7.874 Z " fill="black" stroke="none"/></mask><path d=" M 65.335 7.874 L 105.886 31.286 C 107.904 32.451 109.147 34.605 109.147 36.935 L 109.147 83.759 C 109.147 86.09 107.904 88.243 105.886 89.408 L 65.335 112.82 C 63.317 113.986 60.83 113.986 58.812 112.82 L 18.261 89.408 C 16.243 88.243 15 86.09 15 83.759 L 15 36.935 C 15 34.605 16.243 32.451 18.261 31.286 L 58.812 7.874 C 60.83 6.709 63.317 6.709 65.335 7.874 Z " fill="none"/><path d=" M 65.335 7.874 L 105.886 31.286 C 107.904 32.451 109.147 34.605 109.147 36.935 L 109.147 83.759 C 109.147 86.09 107.904 88.243 105.886 89.408 L 65.335 112.82 C 63.317 113.986 60.83 113.986 58.812 112.82 L 18.261 89.408 C 16.243 88.243 15 86.09 15 83.759 L 15 36.935 C 15 34.605 16.243 32.451 18.261 31.286 L 58.812 7.874 C 60.83 6.709 63.317 6.709 65.335 7.874 Z " fill="none" mask="url(#_mask_AjAU0tH2HMznkcVA1RTFPYkC5duTEqiz)" vector-effect="non-scaling-stroke" stroke-width="4.348" stroke="rgb(54,54,54)" stroke-linejoin="miter" stroke-linecap="butt" stroke-miterlimit="4"/></g><g><path d=" M 36.536 75.946 L 31.968 76.636 L 31.968 78.753 L 48.946 78.753 L 48.946 76.476 L 41.251 75.946 L 41.251 59.547 L 52.762 59.757 L 53.452 63.733 L 56.16 63.733 L 56.16 52.813 L 53.723 52.813 L 52.762 56.679 L 41.251 56.9 L 41.251 41.191 L 56.801 41.511 L 58.019 46.017 L 60.408 45.967 L 59.928 38.544 L 32.177 38.544 L 32.177 40.92 L 36.536 41.351 L 36.536 75.946 Z  M 77.226 75.885 L 71.919 76.636 L 71.919 78.753 L 87.518 78.753 L 87.518 76.636 L 81.941 75.885 L 81.941 62.305 L 92.665 41.56 L 96.112 40.92 L 96.112 38.544 L 84.391 38.544 L 84.391 40.92 L 88.786 41.4 L 81.092 56.949 L 79.934 59.658 L 78.605 56.999 L 70.11 41.351 L 74.197 40.92 L 74.197 38.544 L 61.676 38.544 L 61.676 40.92 L 64.705 41.351 L 77.226 62.256 L 77.226 75.885 Z " fill="rgb(54,54,54)"/></g><g><path d=" M 145.443 58.306 L 140.716 59.02 L 140.716 61.211 L 158.284 61.211 L 158.284 58.848 L 150.331 58.306 L 150.331 41.34 L 162.236 41.562 L 162.951 45.674 L 165.745 45.674 L 165.745 34.372 L 163.221 34.372 L 162.236 38.386 L 150.331 38.595 L 150.331 22.356 L 166.41 22.688 L 167.666 27.342 L 170.141 27.293 L 169.648 19.61 L 140.937 19.61 L 140.937 22.085 L 145.443 22.516 L 145.443 58.306 Z  M 178.87 58.306 L 174.142 59.02 L 174.142 61.211 L 188.584 61.211 L 188.584 59.02 L 183.745 58.306 L 183.745 22.516 L 188.362 22.085 L 188.362 19.61 L 174.253 19.61 L 174.253 22.085 L 178.87 22.516 L 178.87 58.306 Z  M 234.186 22.294 L 234.186 19.61 L 221.616 19.61 L 221.616 22.294 L 226.122 22.787 L 226.122 56.705 L 222.281 49.417 L 203.948 19.61 L 194.616 19.61 L 194.616 22.356 L 199.061 22.737 L 199.061 58.306 L 194.456 59.02 L 194.456 61.211 L 207.95 61.211 L 207.95 59.02 L 202.631 58.306 L 202.631 25.261 L 206.411 32.784 L 224.472 61.211 L 229.692 61.211 L 229.692 22.737 L 234.186 22.294 Z  M 243.678 58.306 L 239.074 59.02 L 239.074 61.211 L 246.202 61.211 C 248.074 61.211 249.871 61.261 251.582 61.372 C 253.565 61.445 254.931 61.482 255.707 61.482 C 259.696 61.482 263.254 60.584 266.406 58.798 C 269.545 57.001 272.02 54.428 273.817 51.091 C 275.603 47.743 276.501 43.815 276.501 39.309 C 276.501 32.944 274.839 28.007 271.503 24.498 C 268.179 20.977 263.18 19.229 256.519 19.229 C 255.793 19.229 254.98 19.241 254.082 19.278 C 253.183 19.315 252.518 19.352 252.075 19.389 C 249.81 19.536 247.815 19.61 246.091 19.61 L 239.185 19.61 L 239.185 22.085 L 243.678 22.516 L 243.678 58.306 Z  M 255.313 58.737 C 253.048 58.737 250.794 58.491 248.566 57.974 L 248.566 22.577 C 250.511 22.208 252.814 22.023 255.485 22.023 C 260.496 22.023 264.399 23.599 267.206 26.739 C 270.001 29.891 271.404 34.507 271.404 40.577 C 271.404 44.603 270.678 47.976 269.225 50.697 C 267.785 53.431 265.852 55.45 263.414 56.767 C 260.976 58.084 258.28 58.737 255.313 58.737 Z  M 308.007 58.244 L 302.516 59.02 L 302.516 61.211 L 318.656 61.211 L 318.656 59.02 L 312.895 58.244 L 312.895 44.197 L 323.975 22.737 L 327.546 22.085 L 327.546 19.61 L 315.419 19.61 L 315.419 22.085 L 319.974 22.577 L 312.008 38.656 L 310.802 41.451 L 309.435 38.706 L 300.657 22.516 L 304.88 22.085 L 304.88 19.61 L 291.928 19.61 L 291.928 22.085 L 295.055 22.516 L 308.007 44.147 L 308.007 58.244 Z  M 359.125 21.826 C 356.515 20.09 353.474 19.229 349.99 19.229 C 346.555 19.229 343.366 20.029 340.448 21.642 C 337.37 23.365 334.908 25.939 333.061 29.373 C 331.214 32.821 330.291 36.884 330.291 41.562 C 330.291 45.477 331.03 48.986 332.507 52.076 C 333.997 55.166 336.102 57.592 338.823 59.34 C 341.544 61.101 344.708 61.975 348.291 61.975 C 351.8 61.975 355.001 61.088 357.894 59.291 C 360.787 57.493 363.077 54.896 364.751 51.498 C 366.438 48.1 367.275 44.074 367.275 39.42 C 367.275 35.542 366.574 32.082 365.17 29.016 C 363.754 25.963 361.747 23.575 359.125 21.826 Z  M 342.012 24.19 C 344.006 22.676 346.333 21.913 349.005 21.913 C 351.676 21.913 353.991 22.737 355.949 24.387 C 357.906 26.037 359.384 28.241 360.393 31.023 C 361.403 33.806 361.907 36.822 361.907 40.085 C 361.907 44.037 361.39 47.459 360.368 50.34 C 359.347 53.234 357.869 55.45 355.949 56.989 C 354.028 58.528 351.75 59.291 349.116 59.291 C 346.407 59.291 344.043 58.454 342.012 56.792 C 339.98 55.13 338.417 52.901 337.346 50.131 C 336.262 47.349 335.72 44.308 335.72 41.02 C 335.72 37.068 336.275 33.646 337.37 30.777 C 338.466 27.908 340.017 25.717 342.012 24.19 Z  M 410.637 22.085 L 410.637 19.61 L 397.907 19.61 L 397.907 22.085 L 402.684 22.577 L 402.684 43.039 C 402.684 53.911 399.064 59.34 391.813 59.34 C 387.897 59.34 384.869 58.171 382.727 55.831 C 380.584 53.492 379.525 49.491 379.525 43.815 L 379.525 22.577 L 384.241 22.085 L 384.241 19.61 L 370.415 19.61 L 370.415 22.085 L 374.638 22.516 L 374.576 43.643 C 374.576 49.872 375.857 54.477 378.393 57.481 C 380.941 60.485 385.115 61.975 390.938 61.975 C 395.765 61.975 399.557 60.424 402.327 57.309 C 405.085 54.206 406.463 49.454 406.463 43.039 L 406.463 22.577 L 410.637 22.085 Z  M 440.247 21.728 C 437.821 20.054 434.349 19.229 429.843 19.229 C 428.28 19.229 426.47 19.303 424.414 19.45 C 423.318 19.549 422.407 19.61 421.668 19.61 L 414.762 19.61 L 414.762 22.356 L 419.255 22.737 L 419.255 58.306 L 414.097 59.02 L 414.097 61.211 L 429.794 61.211 L 429.794 59.02 L 424.143 58.306 L 424.143 43.101 C 426.371 43.101 427.984 43.076 428.969 43.039 C 430.619 42.904 432.17 43.889 433.635 46.007 C 435.1 48.136 436.75 51.091 438.572 54.896 C 439.668 57.173 440.518 58.786 441.096 59.759 C 441.687 60.731 442.217 61.211 442.697 61.211 L 450.207 61.211 L 450.207 59.02 L 447.191 58.306 C 446.673 58.195 446.119 57.666 445.516 56.742 C 444.913 55.807 444.051 54.329 442.906 52.322 C 441.416 49.577 440.074 47.361 438.905 45.674 C 437.735 44 436.504 42.879 435.224 42.325 L 434.793 42.116 C 437.563 41.23 439.779 39.752 441.429 37.672 C 443.078 35.579 443.903 33.153 443.903 30.371 C 443.903 26.271 442.684 23.39 440.247 21.728 Z  M 427.713 21.974 C 428.366 21.974 428.846 21.95 429.129 21.913 C 432.613 21.765 435.1 22.479 436.602 24.055 C 438.104 25.631 438.856 27.921 438.856 30.912 C 438.856 34.064 438.031 36.428 436.381 38.029 C 434.731 39.617 432.392 40.405 429.351 40.405 C 426.864 40.405 425.128 40.355 424.143 40.245 L 424.143 22.356 C 424.796 22.171 425.99 22.048 427.713 21.974 Z  M 458.936 61.076 C 461.349 61.569 463.799 61.815 466.286 61.815 C 470.312 61.815 473.624 60.879 476.221 59.02 C 478.819 57.149 480.124 54.329 480.124 50.562 C 480.124 48.629 479.57 46.918 478.45 45.428 C 477.33 43.951 475.988 42.695 474.412 41.673 C 472.836 40.651 470.743 39.444 468.108 38.053 C 465.067 36.514 462.752 35.061 461.164 33.683 C 459.564 32.316 458.776 30.679 458.776 28.77 C 458.776 27.133 459.207 25.778 460.056 24.72 C 460.918 23.649 461.977 22.885 463.22 22.405 C 464.464 21.937 465.683 21.691 466.889 21.691 C 468.28 21.691 469.573 21.839 470.767 22.134 C 471.949 22.43 472.873 22.861 473.538 23.452 L 475.458 28.659 L 477.65 28.659 L 477.65 21.309 C 476.702 20.768 475.335 20.275 473.538 19.857 C 471.74 19.438 469.635 19.229 467.222 19.229 C 465.215 19.229 463.22 19.586 461.238 20.324 C 459.268 21.051 457.606 22.196 456.277 23.759 C 454.935 25.311 454.27 27.256 454.27 29.595 C 454.27 31.503 454.787 33.19 455.809 34.643 C 456.831 36.108 458.111 37.364 459.65 38.41 C 461.189 39.444 463.146 40.589 465.523 41.833 C 467.751 43.039 469.524 44.086 470.841 44.96 C 472.159 45.847 473.267 46.856 474.165 48.013 C 475.064 49.158 475.507 50.476 475.507 51.941 C 475.507 54.391 474.658 56.225 472.959 57.456 C 471.26 58.675 469.241 59.291 466.889 59.291 C 465.067 59.291 463.343 59.082 461.731 58.663 C 460.13 58.244 458.825 57.518 457.84 56.496 L 456.252 51.116 L 453.999 51.116 L 453.999 59.562 C 454.873 60.079 456.523 60.584 458.936 61.076 Z  M 490.22 58.306 L 485.615 59.02 L 485.615 61.211 L 515.299 61.211 L 516.505 52.864 L 514.092 52.261 L 511.458 58.023 L 495.046 58.466 L 495.046 40.688 L 505.314 40.848 L 506.077 45.132 L 508.663 45.132 L 508.663 33.609 L 506.077 33.609 L 505.314 37.832 L 495.046 38.053 L 495.046 22.245 L 510.313 22.577 L 511.568 27.293 L 514.375 27.293 L 513.6 19.61 L 485.726 19.61 L 485.726 22.085 L 490.22 22.516 L 490.22 58.306 Z  M 525.727 58.306 L 521.122 59.02 L 521.122 61.211 L 549.107 61.211 L 550.867 52.433 L 548.614 51.338 L 545.438 57.813 L 530.565 58.417 L 530.615 22.737 L 535.502 22.356 L 535.502 19.61 L 521.233 19.61 L 521.233 22.356 L 525.727 22.737 L 525.727 58.306 Z  M 559.104 58.306 L 554.376 59.02 L 554.376 61.211 L 571.945 61.211 L 571.945 58.848 L 563.979 58.306 L 563.979 41.34 L 575.897 41.562 L 576.611 45.674 L 579.406 45.674 L 579.406 34.372 L 576.882 34.372 L 575.897 38.386 L 563.979 38.595 L 563.979 22.356 L 580.071 22.688 L 581.326 27.342 L 583.801 27.293 L 583.309 19.61 L 554.598 19.61 L 554.598 22.085 L 559.104 22.516 L 559.104 58.306 Z " fill="rgb(54,54,54)"/></g><rect x="140.859" y="87.199" width="67.714" height="1.829" transform="matrix(1,0,0,1,0,0)" fill="rgb(54,54,54)"/><g><path d=" M 240.412 78.41 L 237.666 78.41 L 237.666 86.671 L 226.635 86.671 L 226.635 78.41 L 223.889 78.41 L 223.889 97.616 L 226.635 97.616 L 226.635 89.06 L 237.666 89.06 L 237.666 97.616 L 240.412 97.616 L 240.412 78.41 Z  M 255.764 84.418 C 254.693 83.433 253.154 82.941 251.135 82.941 C 249.966 82.941 248.858 83.101 247.823 83.421 C 246.777 83.741 245.878 84.197 245.127 84.8 L 246.223 86.782 C 246.789 86.302 247.491 85.92 248.316 85.637 C 249.141 85.354 249.978 85.219 250.84 85.219 C 252.12 85.219 253.093 85.514 253.745 86.117 C 254.41 86.721 254.73 87.595 254.73 88.727 L 254.73 89.244 L 250.557 89.244 C 248.537 89.244 247.048 89.638 246.112 90.414 C 245.189 91.19 244.721 92.224 244.721 93.504 C 244.721 94.785 245.201 95.819 246.186 96.607 C 247.159 97.382 248.464 97.776 250.101 97.776 C 251.209 97.776 252.182 97.604 252.994 97.247 C 253.807 96.89 254.435 96.373 254.866 95.696 L 254.866 97.616 L 257.365 97.616 L 257.365 88.838 C 257.365 86.881 256.836 85.403 255.764 84.418 Z  M 253.142 95.08 C 252.416 95.523 251.542 95.745 250.532 95.745 C 249.535 95.745 248.747 95.536 248.18 95.117 C 247.614 94.699 247.319 94.12 247.319 93.393 C 247.319 91.891 248.439 91.14 250.667 91.14 L 254.73 91.14 L 254.73 93.172 C 254.41 93.997 253.868 94.625 253.142 95.08 Z  M 262.117 83.076 L 262.117 97.616 L 264.53 97.616 L 273.419 87.028 L 273.419 97.616 L 276.054 97.616 L 276.054 83.076 L 273.666 83.076 L 264.752 93.664 L 264.752 83.076 L 262.117 83.076 Z  M 265.762 80.208 C 266.513 80.848 267.571 81.18 268.926 81.18 C 270.255 81.18 271.314 80.848 272.077 80.208 C 272.841 79.555 273.235 78.619 273.259 77.388 L 271.413 77.388 C 271.4 78.065 271.166 78.607 270.711 79.026 C 270.243 79.432 269.64 79.641 268.889 79.641 C 268.138 79.641 267.547 79.432 267.091 79.026 C 266.648 78.607 266.414 78.065 266.402 77.388 L 264.617 77.388 C 264.629 78.619 265.011 79.555 265.762 80.208 Z  M 295.95 95.314 L 293.734 95.314 L 293.734 83.076 L 282.456 83.076 L 282.235 87.989 C 282.099 90.291 281.865 92.076 281.52 93.332 C 281.163 94.6 280.523 95.253 279.6 95.314 L 278.824 95.314 L 278.824 100.99 L 281.324 100.99 L 281.324 97.616 L 293.487 97.616 L 293.487 100.99 L 295.95 100.99 L 295.95 95.314 Z  M 284.192 92.716 C 284.426 91.522 284.574 90.008 284.648 88.173 L 284.783 85.379 L 291.099 85.379 L 291.099 95.314 L 282.949 95.314 C 283.552 94.785 283.958 93.911 284.192 92.716 Z  M 299.385 83.076 L 299.385 97.616 L 301.798 97.616 L 310.687 87.028 L 310.687 97.616 L 313.322 97.616 L 313.322 83.076 L 310.933 83.076 L 302.019 93.664 L 302.019 83.076 L 299.385 83.076 Z  M 328.182 96.816 C 329.339 97.456 330.669 97.776 332.146 97.776 C 333.464 97.776 334.645 97.506 335.68 96.976 C 336.701 96.434 337.502 95.659 338.08 94.649 L 336.074 93.393 C 335.618 94.083 335.052 94.612 334.375 94.957 C 333.697 95.302 332.946 95.474 332.122 95.474 C 331.174 95.474 330.312 95.265 329.548 94.846 C 328.797 94.428 328.206 93.824 327.776 93.049 C 327.345 92.273 327.123 91.374 327.123 90.34 C 327.123 89.343 327.345 88.444 327.776 87.669 C 328.206 86.893 328.797 86.29 329.548 85.871 C 330.312 85.452 331.174 85.243 332.122 85.243 C 332.946 85.243 333.697 85.416 334.375 85.76 C 335.052 86.105 335.618 86.634 336.074 87.324 L 338.08 86.031 C 337.502 85.034 336.701 84.258 335.68 83.729 C 334.645 83.199 333.464 82.941 332.146 82.941 C 330.669 82.941 329.339 83.249 328.182 83.877 C 327.024 84.517 326.113 85.391 325.449 86.511 C 324.796 87.644 324.464 88.912 324.464 90.34 C 324.464 91.768 324.796 93.049 325.449 94.169 C 326.113 95.302 327.024 96.176 328.182 96.816 Z  M 354.209 93.615 C 354.209 91.731 353.273 90.549 351.389 90.069 C 352.116 89.774 352.682 89.355 353.101 88.789 C 353.507 88.235 353.716 87.57 353.716 86.807 C 353.716 85.613 353.236 84.701 352.263 84.049 C 351.291 83.396 349.949 83.076 348.225 83.076 L 341.478 83.076 L 341.478 97.616 L 348.471 97.616 C 350.38 97.616 351.808 97.272 352.768 96.57 C 353.729 95.88 354.209 94.896 354.209 93.615 Z  M 344.052 89.331 L 344.052 85.108 L 348.004 85.108 C 350.06 85.108 351.082 85.797 351.082 87.188 C 351.082 87.878 350.823 88.42 350.306 88.777 C 349.776 89.146 349.013 89.331 348.004 89.331 L 344.052 89.331 Z  M 350.749 95.068 C 350.207 95.413 349.383 95.585 348.287 95.585 L 344.052 95.585 L 344.052 91.227 L 348.447 91.227 C 349.53 91.227 350.318 91.411 350.823 91.768 C 351.328 92.138 351.574 92.692 351.574 93.443 C 351.574 94.181 351.303 94.711 350.749 95.068 Z  M 360.66 96.816 C 361.817 97.456 363.11 97.776 364.551 97.776 C 366.003 97.776 367.296 97.456 368.441 96.816 C 369.586 96.176 370.485 95.302 371.125 94.169 C 371.777 93.049 372.098 91.768 372.098 90.34 C 372.098 88.912 371.777 87.644 371.125 86.511 C 370.485 85.391 369.586 84.517 368.441 83.877 C 367.296 83.249 366.003 82.941 364.551 82.941 C 363.11 82.941 361.817 83.249 360.66 83.877 C 359.503 84.517 358.604 85.391 357.951 86.511 C 357.311 87.644 356.979 88.912 356.979 90.34 C 356.979 91.768 357.311 93.049 357.951 94.169 C 358.604 95.302 359.503 96.176 360.66 96.816 Z  M 367.062 94.834 C 366.323 95.265 365.486 95.474 364.551 95.474 C 363.627 95.474 362.79 95.265 362.051 94.834 C 361.3 94.403 360.722 93.8 360.291 93.024 C 359.86 92.249 359.638 91.35 359.638 90.34 C 359.638 89.343 359.86 88.444 360.291 87.669 C 360.722 86.893 361.3 86.29 362.051 85.871 C 362.79 85.452 363.627 85.243 364.551 85.243 C 365.486 85.243 366.323 85.452 367.062 85.871 C 367.813 86.29 368.392 86.893 368.81 87.669 C 369.229 88.444 369.438 89.343 369.438 90.34 C 369.438 91.35 369.229 92.249 368.81 93.024 C 368.392 93.8 367.813 94.403 367.062 94.834 Z  M 375.914 83.076 L 375.914 97.616 L 378.327 97.616 L 387.229 87.028 L 387.229 97.616 L 389.863 97.616 L 389.863 83.076 L 387.475 83.076 L 378.549 93.664 L 378.549 83.076 L 375.914 83.076 Z  M 379.571 80.208 C 380.322 80.848 381.368 81.18 382.723 81.18 C 384.065 81.18 385.111 80.848 385.874 80.208 C 386.65 79.555 387.044 78.619 387.056 77.388 L 385.222 77.388 C 385.197 78.065 384.963 78.607 384.508 79.026 C 384.052 79.432 383.449 79.641 382.698 79.641 C 381.947 79.641 381.344 79.432 380.9 79.026 C 380.445 78.607 380.211 78.065 380.199 77.388 L 378.413 77.388 C 378.438 78.619 378.82 79.555 379.571 80.208 Z  M 404.674 96.816 C 405.832 97.456 407.124 97.776 408.577 97.776 C 410.018 97.776 411.31 97.456 412.455 96.816 C 413.6 96.176 414.499 95.302 415.152 94.169 C 415.792 93.049 416.124 91.768 416.124 90.34 C 416.124 88.912 415.792 87.644 415.152 86.511 C 414.499 85.391 413.6 84.517 412.455 83.877 C 411.31 83.249 410.018 82.941 408.577 82.941 C 407.124 82.941 405.832 83.249 404.674 83.877 C 403.529 84.517 402.618 85.391 401.978 86.511 C 401.326 87.644 400.993 88.912 400.993 90.34 C 400.993 91.768 401.326 93.049 401.978 94.169 C 402.618 95.302 403.529 96.176 404.674 96.816 Z  M 411.089 94.834 C 410.338 95.265 409.5 95.474 408.577 95.474 C 407.641 95.474 406.804 95.265 406.066 94.834 C 405.327 94.403 404.736 93.8 404.305 93.024 C 403.874 92.249 403.665 91.35 403.665 90.34 C 403.665 89.343 403.874 88.444 404.305 87.669 C 404.736 86.893 405.327 86.29 406.066 85.871 C 406.804 85.452 407.641 85.243 408.577 85.243 C 409.5 85.243 410.338 85.452 411.089 85.871 C 411.827 86.29 412.406 86.893 412.825 87.669 C 413.243 88.444 413.453 89.343 413.453 90.34 C 413.453 91.35 413.243 92.249 412.825 93.024 C 412.406 93.8 411.827 94.403 411.089 94.834 Z  M 430.96 84.468 C 429.901 83.864 428.694 83.569 427.34 83.569 C 426.121 83.569 425.013 83.827 424.028 84.332 C 423.031 84.849 422.231 85.563 421.603 86.499 C 421.738 84.615 422.268 83.175 423.203 82.165 C 424.127 81.156 425.555 80.442 427.451 80.023 L 433.57 78.706 L 433.188 76.293 L 426.552 77.77 C 424.028 78.324 422.145 79.444 420.926 81.143 C 419.695 82.83 419.079 85.169 419.079 88.149 C 419.079 91.227 419.756 93.603 421.098 95.302 C 422.44 96.989 424.348 97.838 426.823 97.838 C 428.288 97.838 429.593 97.53 430.738 96.927 C 431.871 96.324 432.757 95.486 433.397 94.391 C 434.025 93.307 434.345 92.052 434.345 90.648 C 434.345 89.269 434.05 88.05 433.447 86.979 C 432.856 85.908 432.031 85.071 430.96 84.468 Z  M 429.359 95.006 C 428.633 95.425 427.808 95.647 426.872 95.647 C 425.961 95.647 425.136 95.425 424.41 95.006 C 423.671 94.588 423.105 94.009 422.686 93.27 C 422.28 92.532 422.071 91.682 422.071 90.734 C 422.071 89.281 422.514 88.124 423.4 87.238 C 424.287 86.364 425.444 85.92 426.872 85.92 C 428.3 85.92 429.458 86.364 430.332 87.238 C 431.218 88.124 431.649 89.281 431.649 90.734 C 431.649 91.682 431.452 92.532 431.046 93.27 C 430.64 94.009 430.086 94.588 429.359 95.006 Z  M 449.6 83.864 C 448.479 83.249 447.224 82.941 445.808 82.941 C 444.737 82.941 443.739 83.138 442.853 83.556 C 441.954 83.963 441.215 84.578 440.624 85.379 L 440.624 83.076 L 438.101 83.076 L 438.101 102.935 L 440.735 102.935 L 440.735 95.425 C 441.339 96.188 442.077 96.779 442.939 97.173 C 443.813 97.579 444.773 97.776 445.808 97.776 C 447.224 97.776 448.479 97.469 449.6 96.853 C 450.72 96.225 451.594 95.351 452.222 94.231 C 452.85 93.098 453.17 91.805 453.17 90.34 C 453.17 88.875 452.85 87.595 452.222 86.474 C 451.594 85.354 450.72 84.492 449.6 83.864 Z  M 448.098 94.834 C 447.359 95.265 446.522 95.474 445.598 95.474 C 444.675 95.474 443.85 95.265 443.099 94.834 C 442.348 94.403 441.757 93.8 441.339 93.024 C 440.92 92.249 440.711 91.35 440.711 90.34 C 440.711 89.343 440.92 88.457 441.351 87.681 C 441.782 86.918 442.373 86.314 443.111 85.883 C 443.85 85.452 444.675 85.243 445.598 85.243 C 446.522 85.243 447.359 85.452 448.098 85.871 C 448.849 86.29 449.427 86.893 449.858 87.669 C 450.289 88.444 450.498 89.343 450.498 90.34 C 450.498 91.35 450.289 92.249 449.858 93.024 C 449.427 93.8 448.849 94.403 448.098 94.834 Z  M 466.651 84.418 C 465.58 83.433 464.041 82.941 462.034 82.941 C 460.865 82.941 459.757 83.101 458.71 83.421 C 457.664 83.741 456.765 84.197 456.026 84.8 L 457.122 86.782 C 457.688 86.302 458.378 85.92 459.203 85.637 C 460.028 85.354 460.865 85.219 461.727 85.219 C 463.007 85.219 463.98 85.514 464.632 86.117 C 465.297 86.721 465.629 87.595 465.629 88.727 L 465.629 89.244 L 461.456 89.244 C 459.424 89.244 457.947 89.638 457.011 90.414 C 456.076 91.19 455.608 92.224 455.608 93.504 C 455.608 94.785 456.1 95.819 457.073 96.607 C 458.058 97.382 459.363 97.776 460.988 97.776 C 462.108 97.776 463.069 97.604 463.881 97.247 C 464.694 96.89 465.322 96.373 465.765 95.696 L 465.765 97.616 L 468.264 97.616 L 468.264 88.838 C 468.264 86.881 467.722 85.403 466.651 84.418 Z  M 464.029 95.08 C 463.303 95.523 462.428 95.745 461.431 95.745 C 460.422 95.745 459.634 95.536 459.067 95.117 C 458.501 94.699 458.218 94.12 458.218 93.393 C 458.218 91.891 459.326 91.14 461.567 91.14 L 465.629 91.14 L 465.629 93.172 C 465.297 93.997 464.768 94.625 464.029 95.08 Z  M 482.89 91.276 C 482.361 90.71 481.61 90.303 480.637 90.045 C 481.438 89.749 482.078 89.318 482.558 88.752 C 483.038 88.186 483.272 87.545 483.272 86.831 C 483.272 86.068 483.001 85.379 482.472 84.775 C 481.942 84.172 481.216 83.704 480.28 83.372 C 479.345 83.039 478.298 82.879 477.129 82.879 C 475.183 82.879 473.324 83.323 471.551 84.221 L 472.265 86.253 C 473.878 85.502 475.405 85.132 476.845 85.132 C 477.978 85.132 478.889 85.317 479.554 85.674 C 480.219 86.043 480.551 86.561 480.551 87.213 C 480.551 87.816 480.268 88.296 479.702 88.641 C 479.135 88.986 478.36 89.158 477.375 89.158 L 474.9 89.158 L 474.9 91.054 L 477.56 91.054 C 478.643 91.054 479.48 91.239 480.071 91.608 C 480.662 91.978 480.97 92.495 480.97 93.172 C 480.97 93.898 480.6 94.489 479.849 94.908 C 479.111 95.339 478.126 95.56 476.87 95.56 C 475.959 95.56 475.06 95.437 474.161 95.191 C 473.263 94.945 472.462 94.6 471.773 94.157 L 470.973 96.164 C 471.785 96.693 472.696 97.099 473.731 97.382 C 474.765 97.666 475.824 97.813 476.907 97.813 C 478.187 97.813 479.345 97.616 480.379 97.247 C 481.413 96.865 482.213 96.348 482.804 95.683 C 483.383 95.019 483.678 94.255 483.678 93.393 C 483.678 92.544 483.42 91.842 482.89 91.276 Z " fill="rgb(54,54,54)"/></g><rect x="501.528" y="87.199" width="67.714" height="1.829" transform="matrix(1,0,0,1,0,0)" fill="rgb(54,54,54)"/></g></svg>