<?xml version="1.0" encoding="UTF-8" standalone="no"?><!-- Generator: Gravit.io --><svg xmlns="http://www.w3.org/2000/svg" xmlns:xlink="http://www.w3.org/1999/xlink" style="isolation:isolate" viewBox="0 0 1035 1050" width="1035pt" height="1050pt"><defs><clipPath id="_clipPath_sEYwvP6Ddq3ymi9qa6w9ObNSfmjBsEBJ"><rect width="1035" height="1050"/></clipPath></defs><g clip-path="url(#_clipPath_sEYwvP6Ddq3ymi9qa6w9ObNSfmjBsEBJ)"><circle vector-effect="non-scaling-stroke" cx="518.9999999999998" cy="524.9999999999987" r="515" fill="rgb(255,255,255)"/><g><mask id="_mask_rwKVzCbioQYarnaT4HwoY9y6AGSUYwzQ" x="-200%" y="-200%" width="400%" height="400%"><rect x="-200%" y="-200%" width="400%" height="400%" style="fill:white;"/><path d=" M 545.973 43.986 L 916.537 257.933 C 934.979 268.581 946.34 288.258 946.34 309.552 L 946.34 737.448 C 946.34 758.742 934.979 778.419 916.537 789.067 L 545.973 1003.014 C 527.531 1013.662 504.809 1013.662 486.367 1003.014 L 115.803 789.067 C 97.361 778.419 86.001 758.742 86 737.448 L 86 309.552 C 86.001 288.258 97.361 268.581 115.803 257.933 L 486.367 43.986 C 504.809 33.338 527.531 33.338 545.973 43.986 Z " fill="black" stroke="none"/></mask><path d=" M 545.973 43.986 L 916.537 257.933 C 934.979 268.581 946.34 288.258 946.34 309.552 L 946.34 737.448 C 946.34 758.742 934.979 778.419 916.537 789.067 L 545.973 1003.014 C 527.531 1013.662 504.809 1013.662 486.367 1003.014 L 115.803 789.067 C 97.361 778.419 86.001 758.742 86 737.448 L 86 309.552 C 86.001 288.258 97.361 268.581 115.803 257.933 L 486.367 43.986 C 504.809 33.338 527.531 33.338 545.973 43.986 Z " fill="none"/><path d=" M 545.973 43.986 L 916.537 257.933 C 934.979 268.581 946.34 288.258 946.34 309.552 L 946.34 737.448 C 946.34 758.742 934.979 778.419 916.537 789.067 L 545.973 1003.014 C 527.531 1013.662 504.809 1013.662 486.367 1003.014 L 115.803 789.067 C 97.361 778.419 86.001 758.742 86 737.448 L 86 309.552 C 86.001 288.258 97.361 268.581 115.803 257.933 L 486.367 43.986 C 504.809 33.338 527.531 33.338 545.973 43.986 Z " fill="none" mask="url(#_mask_rwKVzCbioQYarnaT4HwoY9y6AGSUYwzQ)" vector-effect="non-scaling-stroke" stroke-width="40" stroke="rgb(54,54,54)" stroke-linejoin="miter" stroke-linecap="butt" stroke-miterlimit="4"/></g><g><path d=" M 282.798 666.051 L 241.058 672.351 L 241.058 691.702 L 396.205 691.702 L 396.205 670.888 L 325.888 666.051 L 325.888 516.191 L 431.083 518.103 L 437.383 554.443 L 462.135 554.443 L 462.135 454.649 L 439.858 454.649 L 431.083 489.976 L 325.888 492.002 L 325.888 348.442 L 467.985 351.367 L 479.123 392.545 L 500.95 392.095 L 496.562 324.253 L 242.97 324.253 L 242.97 345.967 L 282.798 349.905 L 282.798 666.051 Z  M 654.635 665.488 L 606.144 672.351 L 606.144 691.702 L 748.691 691.702 L 748.691 672.351 L 697.725 665.488 L 697.725 541.392 L 795.719 351.817 L 827.221 345.967 L 827.221 324.253 L 720.114 324.253 L 720.114 345.967 L 760.28 350.355 L 689.962 492.452 L 679.387 517.203 L 667.236 492.902 L 589.606 349.905 L 626.958 345.967 L 626.958 324.253 L 512.538 324.253 L 512.538 345.967 L 540.215 349.905 L 654.635 540.942 L 654.635 665.488 Z " fill="rgb(54,54,54)"/></g><g><path d=" M 1272.026 548.847 L 1228.823 555.373 L 1228.823 575.399 L 1389.371 575.399 L 1389.371 553.797 L 1316.691 548.847 L 1316.691 393.812 L 1425.486 395.837 L 1432.011 433.414 L 1457.55 433.414 L 1457.55 330.133 L 1434.486 330.133 L 1425.486 366.81 L 1316.691 368.723 L 1316.691 220.325 L 1463.626 223.363 L 1475.101 265.891 L 1497.716 265.441 L 1493.215 195.236 L 1230.848 195.236 L 1230.848 217.85 L 1272.026 221.788 L 1272.026 548.847 Z  M 1577.483 548.847 L 1534.28 555.373 L 1534.28 575.399 L 1666.252 575.399 L 1666.252 555.373 L 1622.036 548.847 L 1622.036 221.788 L 1664.227 217.85 L 1664.227 195.236 L 1535.293 195.236 L 1535.293 217.85 L 1577.483 221.788 L 1577.483 548.847 Z  M 2082.979 219.763 L 2082.979 195.236 L 1968.109 195.236 L 1968.109 219.763 L 2009.287 224.263 L 2009.287 534.221 L 1974.185 467.617 L 1806.661 195.236 L 1721.38 195.236 L 1721.38 220.325 L 1761.995 223.813 L 1761.995 548.847 L 1719.918 555.373 L 1719.918 575.399 L 1843.226 575.399 L 1843.226 555.373 L 1794.623 548.847 L 1794.623 246.877 L 1829.162 315.619 L 1994.211 575.399 L 2041.914 575.399 L 2041.914 223.813 L 2082.979 219.763 Z  M 2169.722 548.847 L 2127.645 555.373 L 2127.645 575.399 L 2192.786 575.399 C 2209.888 575.399 2226.314 575.849 2241.952 576.861 C 2260.066 577.536 2272.554 577.874 2279.642 577.874 C 2316.095 577.874 2348.609 569.661 2377.411 553.347 C 2406.101 536.921 2428.715 513.407 2445.141 482.918 C 2461.454 452.316 2469.667 416.426 2469.667 375.248 C 2469.667 317.082 2454.479 271.966 2423.989 239.902 C 2393.612 207.725 2347.934 191.748 2287.068 191.748 C 2280.43 191.748 2273.004 191.861 2264.791 192.198 C 2256.578 192.536 2250.503 192.874 2246.453 193.211 C 2225.751 194.561 2207.525 195.236 2191.774 195.236 L 2128.657 195.236 L 2128.657 217.85 L 2169.722 221.788 L 2169.722 548.847 Z  M 2276.042 552.785 C 2255.341 552.785 2234.752 550.535 2214.388 545.809 L 2214.388 222.351 C 2232.164 218.975 2253.203 217.288 2277.617 217.288 C 2323.408 217.288 2359.072 231.689 2384.724 260.378 C 2410.263 289.18 2423.089 331.37 2423.089 386.836 C 2423.089 423.626 2416.451 454.453 2403.175 479.317 C 2390.012 504.294 2372.348 522.745 2350.072 534.784 C 2327.795 546.822 2303.156 552.785 2276.042 552.785 Z  M 2757.574 548.285 L 2707.396 555.373 L 2707.396 575.399 L 2854.893 575.399 L 2854.893 555.373 L 2802.239 548.285 L 2802.239 419.914 L 2903.496 223.813 L 2936.123 217.85 L 2936.123 195.236 L 2825.303 195.236 L 2825.303 217.85 L 2866.931 222.351 L 2794.139 369.285 L 2783.113 394.824 L 2770.625 369.735 L 2690.407 221.788 L 2728.997 217.85 L 2728.997 195.236 L 2610.639 195.236 L 2610.639 217.85 L 2639.216 221.788 L 2757.574 419.464 L 2757.574 548.285 Z  M 3224.705 215.488 C 3200.853 199.624 3173.064 191.748 3141.224 191.748 C 3109.835 191.748 3080.695 199.061 3054.031 213.8 C 3025.904 229.551 3003.403 253.065 2986.526 284.455 C 2969.65 315.957 2961.212 353.084 2961.212 395.837 C 2961.212 431.614 2967.963 463.679 2981.464 491.918 C 2995.077 520.158 3014.316 542.322 3039.18 558.298 C 3064.044 574.386 3092.959 582.374 3125.698 582.374 C 3157.763 582.374 3187.015 574.274 3213.454 557.848 C 3239.893 541.422 3260.82 517.683 3276.121 486.63 C 3291.534 455.578 3299.185 418.788 3299.185 376.261 C 3299.185 340.821 3292.772 309.206 3279.946 281.192 C 3267.008 253.29 3248.669 231.464 3224.705 215.488 Z  M 3068.319 237.089 C 3086.546 223.251 3107.81 216.275 3132.224 216.275 C 3156.638 216.275 3177.789 223.813 3195.678 238.889 C 3213.567 253.965 3227.067 274.104 3236.293 299.531 C 3245.519 324.957 3250.131 352.522 3250.131 382.336 C 3250.131 418.451 3245.406 449.728 3236.068 476.055 C 3226.73 502.494 3213.229 522.745 3195.678 536.809 C 3178.127 550.872 3157.313 557.848 3133.236 557.848 C 3108.485 557.848 3086.883 550.197 3068.319 535.009 C 3049.756 519.82 3035.467 499.456 3025.679 474.142 C 3015.778 448.715 3010.828 420.926 3010.828 390.887 C 3010.828 354.772 3015.891 323.495 3025.904 297.28 C 3035.917 271.066 3050.093 251.04 3068.319 237.089 Z  M 3695.436 217.85 L 3695.436 195.236 L 3579.103 195.236 L 3579.103 217.85 L 3622.756 222.351 L 3622.756 409.338 C 3622.756 508.682 3589.679 558.298 3523.412 558.298 C 3487.635 558.298 3459.958 547.61 3440.382 526.233 C 3420.805 504.857 3411.13 468.292 3411.13 416.426 L 3411.13 222.351 L 3454.22 217.85 L 3454.22 195.236 L 3327.874 195.236 L 3327.874 217.85 L 3366.464 221.788 L 3365.902 414.851 C 3365.902 471.779 3377.602 513.857 3400.779 541.309 C 3424.068 568.761 3462.208 582.374 3515.424 582.374 C 3559.527 582.374 3594.179 568.198 3619.493 539.734 C 3644.695 511.382 3657.296 467.954 3657.296 409.338 L 3657.296 222.351 L 3695.436 217.85 Z  M 3966.016 214.587 C 3943.852 199.286 3912.125 191.748 3870.948 191.748 C 3856.659 191.748 3840.12 192.424 3821.332 193.774 C 3811.319 194.674 3802.993 195.236 3796.243 195.236 L 3733.126 195.236 L 3733.126 220.325 L 3774.191 223.813 L 3774.191 548.847 L 3727.05 555.373 L 3727.05 575.399 L 3870.497 575.399 L 3870.497 555.373 L 3818.857 548.847 L 3818.857 409.9 C 3839.22 409.9 3853.959 409.675 3862.959 409.338 C 3878.035 408.1 3892.211 417.101 3905.6 436.452 C 3918.988 455.916 3934.064 482.918 3950.715 517.683 C 3960.728 538.496 3968.491 553.235 3973.779 562.123 C 3979.18 571.011 3984.017 575.399 3988.405 575.399 L 4057.035 575.399 L 4057.035 555.373 L 4029.47 548.847 C 4024.745 547.835 4019.682 542.997 4014.169 534.559 C 4008.657 526.008 4000.781 512.507 3990.318 494.168 C 3976.704 469.079 3964.441 448.828 3953.753 433.414 C 3943.065 418.113 3931.814 407.875 3920.113 402.812 L 3916.175 400.9 C 3941.49 392.799 3961.741 379.298 3976.817 360.285 C 3991.893 341.158 3999.431 318.994 3999.431 293.568 C 3999.431 256.103 3988.293 229.776 3966.016 214.587 Z  M 3851.484 216.838 C 3857.447 216.838 3861.834 216.613 3864.422 216.275 C 3896.262 214.925 3918.988 221.45 3932.714 235.851 C 3946.44 250.252 3953.303 271.179 3953.303 298.518 C 3953.303 327.32 3945.765 348.921 3930.689 363.547 C 3915.613 378.061 3894.237 385.261 3866.447 385.261 C 3843.721 385.261 3827.857 384.811 3818.857 383.799 L 3818.857 220.325 C 3824.819 218.638 3835.733 217.513 3851.484 216.838 Z  M 4136.803 574.161 C 4158.854 578.662 4181.243 580.912 4203.97 580.912 C 4240.759 580.912 4271.024 572.361 4294.763 555.373 C 4318.502 538.271 4330.428 512.507 4330.428 478.08 C 4330.428 460.416 4325.365 444.778 4315.127 431.164 C 4304.889 417.663 4292.625 406.188 4278.224 396.85 C 4263.824 387.511 4244.697 376.486 4220.621 363.772 C 4192.831 349.709 4171.68 336.433 4157.166 323.832 C 4142.54 311.344 4135.34 296.38 4135.34 278.942 C 4135.34 263.978 4139.278 251.602 4147.041 241.927 C 4154.916 232.139 4164.592 225.163 4175.955 220.775 C 4187.318 216.5 4198.457 214.25 4209.482 214.25 C 4222.196 214.25 4234.009 215.6 4244.922 218.3 C 4255.723 221 4264.161 224.938 4270.236 230.339 L 4287.788 277.929 L 4307.814 277.929 L 4307.814 210.762 C 4299.151 205.812 4286.663 201.312 4270.236 197.486 C 4253.81 193.661 4234.572 191.748 4212.52 191.748 C 4194.181 191.748 4175.955 195.011 4157.841 201.762 C 4139.84 208.4 4124.652 218.863 4112.501 233.151 C 4100.238 247.327 4094.162 265.103 4094.162 286.48 C 4094.162 303.918 4098.888 319.332 4108.226 332.608 C 4117.564 345.996 4129.265 357.472 4143.328 367.035 C 4157.391 376.486 4175.28 386.949 4196.994 398.312 C 4217.358 409.338 4233.559 418.901 4245.597 426.889 C 4257.636 434.99 4267.761 444.215 4275.974 454.791 C 4284.187 465.254 4288.238 477.292 4288.238 490.681 C 4288.238 513.07 4280.475 529.833 4264.949 541.084 C 4249.422 552.222 4230.971 557.848 4209.482 557.848 C 4192.831 557.848 4177.08 555.935 4162.342 552.11 C 4147.716 548.285 4135.79 541.647 4126.789 532.309 L 4112.276 483.143 L 4091.687 483.143 L 4091.687 560.323 C 4099.675 565.048 4114.751 569.661 4136.803 574.161 Z  M 4422.684 548.847 L 4380.606 555.373 L 4380.606 575.399 L 4651.862 575.399 L 4662.887 499.119 L 4640.836 493.606 L 4616.759 546.259 L 4466.787 550.31 L 4466.787 387.849 L 4560.618 389.312 L 4567.594 428.464 L 4591.22 428.464 L 4591.22 323.157 L 4567.594 323.157 L 4560.618 361.747 L 4466.787 363.772 L 4466.787 219.313 L 4606.296 222.351 L 4617.772 265.441 L 4643.424 265.441 L 4636.336 195.236 L 4381.619 195.236 L 4381.619 217.85 L 4422.684 221.788 L 4422.684 548.847 Z  M 4747.155 548.847 L 4705.078 555.373 L 4705.078 575.399 L 4960.807 575.399 L 4976.896 495.181 L 4956.307 485.168 L 4927.28 544.347 L 4791.371 549.86 L 4791.821 223.813 L 4836.486 220.325 L 4836.486 195.236 L 4706.09 195.236 L 4706.09 220.325 L 4747.155 223.813 L 4747.155 548.847 Z  M 5052.163 548.847 L 5008.96 555.373 L 5008.96 575.399 L 5169.508 575.399 L 5169.508 553.797 L 5096.716 548.847 L 5096.716 393.812 L 5205.623 395.837 L 5212.149 433.414 L 5237.688 433.414 L 5237.688 330.133 L 5214.624 330.133 L 5205.623 366.81 L 5096.716 368.723 L 5096.716 220.325 L 5243.763 223.363 L 5255.239 265.891 L 5277.853 265.441 L 5273.353 195.236 L 5010.985 195.236 L 5010.985 217.85 L 5052.163 221.788 L 5052.163 548.847 Z " fill="rgb(54,54,54)"/></g><rect x="1230.134" y="812.88" width="618.791" height="16.718" transform="matrix(1,0,0,1,0,0)" fill="rgb(54,54,54)"/><g><path d=" M 2139.872 732.565 L 2114.783 732.565 L 2114.783 808.057 L 2013.976 808.057 L 2013.976 732.565 L 1988.887 732.565 L 1988.887 908.077 L 2013.976 908.077 L 2013.976 829.884 L 2114.783 829.884 L 2114.783 908.077 L 2139.872 908.077 L 2139.872 732.565 Z  M 2280.169 787.469 C 2270.381 778.468 2256.317 773.968 2237.866 773.968 C 2227.178 773.968 2217.052 775.43 2207.601 778.355 C 2198.038 781.281 2189.825 785.443 2182.962 790.956 L 2192.976 809.07 C 2198.151 804.682 2204.564 801.194 2212.102 798.607 C 2219.64 796.019 2227.29 794.782 2235.166 794.782 C 2246.867 794.782 2255.755 797.482 2261.718 802.995 C 2267.793 808.507 2270.718 816.495 2270.718 826.846 L 2270.718 831.571 L 2232.578 831.571 C 2214.127 831.571 2200.513 835.172 2191.963 842.26 C 2183.525 849.348 2179.25 858.798 2179.25 870.499 C 2179.25 882.2 2183.637 891.65 2192.638 898.851 C 2201.526 905.939 2213.452 909.539 2228.415 909.539 C 2238.541 909.539 2247.429 907.964 2254.855 904.701 C 2262.28 901.439 2268.018 896.713 2271.956 890.525 L 2271.956 908.077 L 2294.795 908.077 L 2294.795 827.859 C 2294.795 809.97 2289.957 796.469 2280.169 787.469 Z  M 2256.205 884.9 C 2249.567 888.95 2241.579 890.975 2232.353 890.975 C 2223.24 890.975 2216.039 889.063 2210.864 885.237 C 2205.689 881.412 2202.989 876.124 2202.989 869.486 C 2202.989 855.761 2213.227 848.898 2233.591 848.898 L 2270.718 848.898 L 2270.718 867.461 C 2267.793 874.999 2262.843 880.737 2256.205 884.9 Z  M 2338.223 775.205 L 2338.223 908.077 L 2360.274 908.077 L 2441.504 811.32 L 2441.504 908.077 L 2465.581 908.077 L 2465.581 775.205 L 2443.755 775.205 L 2362.299 871.962 L 2362.299 775.205 L 2338.223 775.205 Z  M 2371.525 748.991 C 2378.388 754.841 2388.063 757.879 2400.439 757.879 C 2412.59 757.879 2422.266 754.841 2429.241 748.991 C 2436.217 743.028 2439.817 734.478 2440.042 723.227 L 2423.166 723.227 C 2423.053 729.415 2420.916 734.365 2416.753 738.19 C 2412.477 741.903 2406.965 743.816 2400.102 743.816 C 2393.239 743.816 2387.838 741.903 2383.676 738.19 C 2379.625 734.365 2377.488 729.415 2377.375 723.227 L 2361.062 723.227 C 2361.174 734.478 2364.662 743.028 2371.525 748.991 Z  M 2647.393 887.038 L 2627.142 887.038 L 2627.142 775.205 L 2524.085 775.205 L 2522.06 820.096 C 2520.822 841.135 2518.685 857.448 2515.534 868.924 C 2512.272 880.512 2506.421 886.475 2497.983 887.038 L 2490.895 887.038 L 2490.895 938.904 L 2513.734 938.904 L 2513.734 908.077 L 2624.892 908.077 L 2624.892 938.904 L 2647.393 938.904 L 2647.393 887.038 Z  M 2539.948 863.299 C 2542.086 852.385 2543.436 838.547 2544.111 821.783 L 2545.349 796.244 L 2603.065 796.244 L 2603.065 887.038 L 2528.585 887.038 C 2534.098 882.2 2537.811 874.212 2539.948 863.299 Z  M 2678.783 775.205 L 2678.783 908.077 L 2700.834 908.077 L 2782.064 811.32 L 2782.064 908.077 L 2806.141 908.077 L 2806.141 775.205 L 2784.315 775.205 L 2702.859 871.962 L 2702.859 775.205 L 2678.783 775.205 Z  M 2941.938 900.764 C 2952.513 906.614 2964.664 909.539 2978.165 909.539 C 2990.203 909.539 3001.004 907.064 3010.455 902.226 C 3019.793 897.276 3027.106 890.188 3032.394 880.962 L 3014.055 869.486 C 3009.892 875.787 3004.717 880.625 2998.529 883.775 C 2992.341 886.925 2985.478 888.5 2977.94 888.5 C 2969.277 888.5 2961.401 886.588 2954.426 882.762 C 2947.563 878.937 2942.163 873.424 2938.225 866.336 C 2934.287 859.248 2932.262 851.035 2932.262 841.585 C 2932.262 832.472 2934.287 824.258 2938.225 817.17 C 2942.163 810.083 2947.563 804.57 2954.426 800.744 C 2961.401 796.919 2969.277 795.007 2977.94 795.007 C 2985.478 795.007 2992.341 796.582 2998.529 799.732 C 3004.717 802.882 3009.892 807.72 3014.055 814.02 L 3032.394 802.207 C 3027.106 793.094 3019.793 786.006 3010.455 781.168 C 3001.004 776.33 2990.203 773.968 2978.165 773.968 C 2964.664 773.968 2952.513 776.78 2941.938 782.518 C 2931.362 788.369 2923.036 796.357 2916.961 806.595 C 2910.998 816.945 2907.96 828.534 2907.96 841.585 C 2907.96 854.635 2910.998 866.336 2916.961 876.574 C 2923.036 886.925 2931.362 894.913 2941.938 900.764 Z  M 3179.778 871.512 C 3179.778 854.298 3171.228 843.497 3154.014 839.109 C 3160.652 836.409 3165.827 832.584 3169.653 827.409 C 3173.365 822.346 3175.278 816.27 3175.278 809.295 C 3175.278 798.382 3170.89 790.056 3162.002 784.093 C 3153.114 778.13 3140.851 775.205 3125.1 775.205 L 3063.446 775.205 L 3063.446 908.077 L 3127.35 908.077 C 3144.788 908.077 3157.839 904.926 3166.615 898.513 C 3175.39 892.213 3179.778 883.212 3179.778 871.512 Z  M 3086.96 832.359 L 3086.96 793.769 L 3123.075 793.769 C 3141.863 793.769 3151.201 800.069 3151.201 812.783 C 3151.201 819.083 3148.839 824.033 3144.113 827.296 C 3139.276 830.671 3132.3 832.359 3123.075 832.359 L 3086.96 832.359 Z  M 3148.164 884.787 C 3143.213 887.938 3135.675 889.513 3125.662 889.513 L 3086.96 889.513 L 3086.96 849.685 L 3127.125 849.685 C 3137.025 849.685 3144.226 851.373 3148.839 854.635 C 3153.452 858.011 3155.702 863.074 3155.702 869.936 C 3155.702 876.687 3153.227 881.525 3148.164 884.787 Z  M 3238.732 900.764 C 3249.308 906.614 3261.121 909.539 3274.285 909.539 C 3287.56 909.539 3299.374 906.614 3309.837 900.764 C 3320.3 894.913 3328.513 886.925 3334.363 876.574 C 3340.326 866.336 3343.252 854.635 3343.252 841.585 C 3343.252 828.534 3340.326 816.945 3334.363 806.595 C 3328.513 796.357 3320.3 788.369 3309.837 782.518 C 3299.374 776.78 3287.56 773.968 3274.285 773.968 C 3261.121 773.968 3249.308 776.78 3238.732 782.518 C 3228.156 788.369 3219.943 796.357 3213.981 806.595 C 3208.13 816.945 3205.092 828.534 3205.092 841.585 C 3205.092 854.635 3208.13 866.336 3213.981 876.574 C 3219.943 886.925 3228.156 894.913 3238.732 900.764 Z  M 3297.236 882.65 C 3290.486 886.588 3282.835 888.5 3274.285 888.5 C 3265.846 888.5 3258.196 886.588 3251.446 882.65 C 3244.583 878.712 3239.295 873.199 3235.357 866.111 C 3231.419 859.023 3229.394 850.81 3229.394 841.585 C 3229.394 832.472 3231.419 824.258 3235.357 817.17 C 3239.295 810.083 3244.583 804.57 3251.446 800.744 C 3258.196 796.919 3265.846 795.007 3274.285 795.007 C 3282.835 795.007 3290.486 796.919 3297.236 800.744 C 3304.099 804.57 3309.387 810.083 3313.212 817.17 C 3317.037 824.258 3318.95 832.472 3318.95 841.585 C 3318.95 850.81 3317.037 859.023 3313.212 866.111 C 3309.387 873.199 3304.099 878.712 3297.236 882.65 Z  M 3378.129 775.205 L 3378.129 908.077 L 3400.18 908.077 L 3481.523 811.32 L 3481.523 908.077 L 3505.6 908.077 L 3505.6 775.205 L 3483.773 775.205 L 3402.205 871.962 L 3402.205 775.205 L 3378.129 775.205 Z  M 3411.544 748.991 C 3418.407 754.841 3427.97 757.879 3440.345 757.879 C 3452.609 757.879 3462.172 754.841 3469.147 748.991 C 3476.235 743.028 3479.836 734.478 3479.948 723.227 L 3463.185 723.227 C 3462.959 729.415 3460.822 734.365 3456.659 738.19 C 3452.496 741.903 3446.983 743.816 3440.12 743.816 C 3433.258 743.816 3427.745 741.903 3423.694 738.19 C 3419.532 734.365 3417.394 729.415 3417.281 723.227 L 3400.968 723.227 C 3401.193 734.478 3404.681 743.028 3411.544 748.991 Z  M 3640.946 900.764 C 3651.522 906.614 3663.335 909.539 3676.611 909.539 C 3689.774 909.539 3701.588 906.614 3712.051 900.764 C 3722.514 894.913 3730.727 886.925 3736.69 876.574 C 3742.541 866.336 3745.578 854.635 3745.578 841.585 C 3745.578 828.534 3742.541 816.945 3736.69 806.595 C 3730.727 796.357 3722.514 788.369 3712.051 782.518 C 3701.588 776.78 3689.774 773.968 3676.611 773.968 C 3663.335 773.968 3651.522 776.78 3640.946 782.518 C 3630.483 788.369 3622.158 796.357 3616.307 806.595 C 3610.344 816.945 3607.307 828.534 3607.307 841.585 C 3607.307 854.635 3610.344 866.336 3616.307 876.574 C 3622.158 886.925 3630.483 894.913 3640.946 900.764 Z  M 3699.563 882.65 C 3692.7 886.588 3685.049 888.5 3676.611 888.5 C 3668.061 888.5 3660.41 886.588 3653.66 882.65 C 3646.909 878.712 3641.509 873.199 3637.571 866.111 C 3633.633 859.023 3631.721 850.81 3631.721 841.585 C 3631.721 832.472 3633.633 824.258 3637.571 817.17 C 3641.509 810.083 3646.909 804.57 3653.66 800.744 C 3660.41 796.919 3668.061 795.007 3676.611 795.007 C 3685.049 795.007 3692.7 796.919 3699.563 800.744 C 3706.313 804.57 3711.601 810.083 3715.426 817.17 C 3719.251 824.258 3721.164 832.472 3721.164 841.585 C 3721.164 850.81 3719.251 859.023 3715.426 866.111 C 3711.601 873.199 3706.313 878.712 3699.563 882.65 Z  M 3881.15 787.919 C 3871.474 782.406 3860.448 779.706 3848.072 779.706 C 3836.934 779.706 3826.809 782.068 3817.808 786.681 C 3808.695 791.406 3801.382 797.932 3795.644 806.482 C 3796.882 789.269 3801.719 776.105 3810.27 766.88 C 3818.708 757.654 3831.759 751.129 3849.085 747.303 L 3905.001 735.265 L 3901.513 713.214 L 3840.872 726.714 C 3817.808 731.777 3800.594 742.016 3789.456 757.542 C 3778.205 772.955 3772.58 794.331 3772.58 821.558 C 3772.58 849.685 3778.768 871.399 3791.031 886.925 C 3803.295 902.339 3820.733 910.102 3843.347 910.102 C 3856.736 910.102 3868.661 907.289 3879.125 901.776 C 3889.475 896.263 3897.576 888.613 3903.426 878.6 C 3909.164 868.699 3912.089 857.223 3912.089 844.397 C 3912.089 831.796 3909.389 820.658 3903.876 810.87 C 3898.476 801.082 3890.938 793.431 3881.15 787.919 Z  M 3866.524 884.225 C 3859.886 888.05 3852.348 890.075 3843.797 890.075 C 3835.472 890.075 3827.934 888.05 3821.296 884.225 C 3814.545 880.4 3809.37 875.112 3805.545 868.361 C 3801.832 861.611 3799.919 853.848 3799.919 845.185 C 3799.919 831.909 3803.97 821.333 3812.07 813.233 C 3820.171 805.245 3830.746 801.194 3843.797 801.194 C 3856.848 801.194 3867.424 805.245 3875.412 813.233 C 3883.512 821.333 3887.45 831.909 3887.45 845.185 C 3887.45 853.848 3885.65 861.611 3881.937 868.361 C 3878.224 875.112 3873.162 880.4 3866.524 884.225 Z  M 4051.486 782.406 C 4041.248 776.78 4029.772 773.968 4016.834 773.968 C 4007.045 773.968 3997.932 775.768 3989.832 779.593 C 3981.619 783.306 3974.868 788.931 3969.468 796.244 L 3969.468 775.205 L 3946.404 775.205 L 3946.404 956.68 L 3970.481 956.68 L 3970.481 888.05 C 3975.993 895.026 3982.744 900.426 3990.619 904.026 C 3998.607 907.739 4007.383 909.539 4016.834 909.539 C 4029.772 909.539 4041.248 906.726 4051.486 901.101 C 4061.724 895.363 4069.712 887.375 4075.45 877.137 C 4081.188 866.786 4084.113 854.973 4084.113 841.585 C 4084.113 828.196 4081.188 816.495 4075.45 806.257 C 4069.712 796.019 4061.724 788.144 4051.486 782.406 Z  M 4037.76 882.65 C 4031.01 886.588 4023.359 888.5 4014.921 888.5 C 4006.483 888.5 3998.945 886.588 3992.082 882.65 C 3985.219 878.712 3979.819 873.199 3975.993 866.111 C 3972.168 859.023 3970.256 850.81 3970.256 841.585 C 3970.256 832.472 3972.168 824.371 3976.106 817.283 C 3980.044 810.308 3985.444 804.795 3992.195 800.857 C 3998.945 796.919 4006.483 795.007 4014.921 795.007 C 4023.359 795.007 4031.01 796.919 4037.76 800.744 C 4044.623 804.57 4049.911 810.083 4053.849 817.17 C 4057.786 824.258 4059.699 832.472 4059.699 841.585 C 4059.699 850.81 4057.786 859.023 4053.849 866.111 C 4049.911 873.199 4044.623 878.712 4037.76 882.65 Z  M 4207.309 787.469 C 4197.521 778.468 4183.457 773.968 4165.118 773.968 C 4154.43 773.968 4144.305 775.43 4134.741 778.355 C 4125.178 781.281 4116.965 785.443 4110.215 790.956 L 4120.228 809.07 C 4125.403 804.682 4131.704 801.194 4139.242 798.607 C 4146.78 796.019 4154.43 794.782 4162.306 794.782 C 4174.006 794.782 4182.895 797.482 4188.858 802.995 C 4194.933 808.507 4197.971 816.495 4197.971 826.846 L 4197.971 831.571 L 4159.831 831.571 C 4141.267 831.571 4127.766 835.172 4119.215 842.26 C 4110.665 849.348 4106.39 858.798 4106.39 870.499 C 4106.39 882.2 4110.89 891.65 4119.778 898.851 C 4128.779 905.939 4140.704 909.539 4155.555 909.539 C 4165.793 909.539 4174.569 907.964 4181.995 904.701 C 4189.42 901.439 4195.158 896.713 4199.208 890.525 L 4199.208 908.077 L 4222.047 908.077 L 4222.047 827.859 C 4222.047 809.97 4217.097 796.469 4207.309 787.469 Z  M 4183.345 884.9 C 4176.707 888.95 4168.719 890.975 4159.606 890.975 C 4150.38 890.975 4143.179 889.063 4138.004 885.237 C 4132.829 881.412 4130.241 876.124 4130.241 869.486 C 4130.241 855.761 4140.367 848.898 4160.843 848.898 L 4197.971 848.898 L 4197.971 867.461 C 4194.933 874.999 4190.095 880.737 4183.345 884.9 Z  M 4355.706 850.135 C 4350.868 844.96 4344.005 841.247 4335.117 838.884 C 4342.43 836.184 4348.281 832.246 4352.668 827.071 C 4357.056 821.896 4359.194 816.045 4359.194 809.52 C 4359.194 802.545 4356.719 796.244 4351.881 790.731 C 4347.043 785.218 4340.405 780.943 4331.855 777.905 C 4323.304 774.868 4313.741 773.405 4303.053 773.405 C 4285.276 773.405 4268.288 777.455 4252.087 785.668 L 4258.612 804.232 C 4273.351 797.369 4287.302 793.994 4300.465 793.994 C 4310.816 793.994 4319.141 795.682 4325.217 798.944 C 4331.292 802.32 4334.33 807.045 4334.33 813.008 C 4334.33 818.521 4331.742 822.908 4326.567 826.059 C 4321.391 829.209 4314.303 830.784 4305.303 830.784 L 4282.689 830.784 L 4282.689 848.11 L 4306.99 848.11 C 4316.891 848.11 4324.542 849.798 4329.942 853.173 C 4335.342 856.548 4338.155 861.273 4338.155 867.461 C 4338.155 874.099 4334.78 879.5 4327.917 883.325 C 4321.166 887.263 4312.166 889.288 4300.69 889.288 C 4292.364 889.288 4284.151 888.163 4275.938 885.913 C 4267.725 883.662 4260.412 880.512 4254.112 876.462 L 4246.799 894.801 C 4254.224 899.638 4262.55 903.351 4272.001 905.939 C 4281.451 908.527 4291.127 909.877 4301.027 909.877 C 4312.728 909.877 4323.304 908.077 4332.754 904.701 C 4342.205 901.214 4349.518 896.488 4354.918 890.413 C 4360.206 884.337 4362.906 877.362 4362.906 869.486 C 4362.906 861.723 4360.544 855.311 4355.706 850.135 Z " fill="rgb(54,54,54)"/></g><rect x="4526.019" y="812.88" width="618.791" height="16.718" transform="matrix(1,0,0,1,0,0)" fill="rgb(54,54,54)"/></g></svg>