<?xml version="1.0" encoding="UTF-8" standalone="no"?><!-- Generator: Gravit.io --><svg xmlns="http://www.w3.org/2000/svg" xmlns:xlink="http://www.w3.org/1999/xlink" style="isolation:isolate" viewBox="0 0 48 48" width="48pt" height="48pt"><defs><clipPath id="_clipPath_Czr6raVw0xzhgetPSBwlIWigdQqsyIE0"><rect width="48" height="48"/></clipPath></defs><g clip-path="url(#_clipPath_Czr6raVw0xzhgetPSBwlIWigdQqsyIE0)"><ellipse vector-effect="non-scaling-stroke" cx="24.499999999999996" cy="23.999999999999993" rx="23.500000000000004" ry="23" fill="rgb(255,255,255)"/><g><mask id="_mask_0Vr4aTZIv2JQDF4SW7dDITXyXOTb828S" x="-200%" y="-200%" width="400%" height="400%"><rect x="-200%" y="-200%" width="400%" height="400%" style="fill:white;"/><path d=" M 25.868 3.351 L 41.725 12.507 C 42.514 12.962 43 13.804 43 14.716 L 43 33.026 C 43 33.937 42.514 34.779 41.725 35.235 L 25.868 44.39 C 25.078 44.846 24.106 44.846 23.317 44.39 L 7.46 35.235 C 6.671 34.779 6.184 33.937 6.184 33.026 L 6.184 14.716 C 6.184 13.804 6.671 12.962 7.46 12.507 L 23.317 3.351 C 24.106 2.896 25.078 2.896 25.868 3.351 Z " fill="black" stroke="none"/></mask><path d=" M 25.868 3.351 L 41.725 12.507 C 42.514 12.962 43 13.804 43 14.716 L 43 33.026 C 43 33.937 42.514 34.779 41.725 35.235 L 25.868 44.39 C 25.078 44.846 24.106 44.846 23.317 44.39 L 7.46 35.235 C 6.671 34.779 6.184 33.937 6.184 33.026 L 6.184 14.716 C 6.184 13.804 6.671 12.962 7.46 12.507 L 23.317 3.351 C 24.106 2.896 25.078 2.896 25.868 3.351 Z " fill="none"/><path d=" M 25.868 3.351 L 41.725 12.507 C 42.514 12.962 43 13.804 43 14.716 L 43 33.026 C 43 33.937 42.514 34.779 41.725 35.235 L 25.868 44.39 C 25.078 44.846 24.106 44.846 23.317 44.39 L 7.46 35.235 C 6.671 34.779 6.184 33.937 6.184 33.026 L 6.184 14.716 C 6.184 13.804 6.671 12.962 7.46 12.507 L 23.317 3.351 C 24.106 2.896 25.078 2.896 25.868 3.351 Z " fill="none" mask="url(#_mask_0Vr4aTZIv2JQDF4SW7dDITXyXOTb828S)" vector-effect="non-scaling-stroke" stroke-width="2.4" stroke="rgb(54,54,54)" stroke-linejoin="miter" stroke-linecap="butt" stroke-miterlimit="4"/></g><g><path d=" M 14.606 29.971 L 12.82 30.24 L 12.82 31.068 L 19.459 31.068 L 19.459 30.178 L 16.45 29.971 L 16.45 23.558 L 20.951 23.64 L 21.221 25.195 L 22.28 25.195 L 22.28 20.924 L 21.327 20.924 L 20.951 22.436 L 16.45 22.523 L 16.45 16.38 L 22.53 16.505 L 23.007 18.267 L 23.941 18.248 L 23.753 15.345 L 12.902 15.345 L 12.902 16.274 L 14.606 16.442 L 14.606 29.971 Z  M 30.517 29.947 L 28.442 30.24 L 28.442 31.068 L 34.542 31.068 L 34.542 30.24 L 32.361 29.947 L 32.361 24.636 L 36.555 16.524 L 37.903 16.274 L 37.903 15.345 L 33.319 15.345 L 33.319 16.274 L 35.038 16.462 L 32.029 22.542 L 31.577 23.601 L 31.057 22.561 L 27.735 16.442 L 29.333 16.274 L 29.333 15.345 L 24.437 15.345 L 24.437 16.274 L 25.621 16.442 L 30.517 24.617 L 30.517 29.947 Z " fill="rgb(54,54,54)"/></g><g><path d=" M 1268.026 592.847 L 1224.823 599.373 L 1224.823 619.399 L 1385.371 619.399 L 1385.371 597.797 L 1312.691 592.847 L 1312.691 437.812 L 1421.486 439.837 L 1428.011 477.414 L 1453.55 477.414 L 1453.55 374.133 L 1430.486 374.133 L 1421.486 410.81 L 1312.691 412.723 L 1312.691 264.325 L 1459.626 267.363 L 1471.101 309.891 L 1493.716 309.441 L 1489.215 239.236 L 1226.848 239.236 L 1226.848 261.85 L 1268.026 265.788 L 1268.026 592.847 Z  M 1573.483 592.847 L 1530.28 599.373 L 1530.28 619.399 L 1662.252 619.399 L 1662.252 599.373 L 1618.036 592.847 L 1618.036 265.788 L 1660.227 261.85 L 1660.227 239.236 L 1531.293 239.236 L 1531.293 261.85 L 1573.483 265.788 L 1573.483 592.847 Z  M 2078.979 263.763 L 2078.979 239.236 L 1964.109 239.236 L 1964.109 263.763 L 2005.287 268.263 L 2005.287 578.221 L 1970.185 511.617 L 1802.661 239.236 L 1717.38 239.236 L 1717.38 264.325 L 1757.995 267.813 L 1757.995 592.847 L 1715.918 599.373 L 1715.918 619.399 L 1839.226 619.399 L 1839.226 599.373 L 1790.623 592.847 L 1790.623 290.877 L 1825.162 359.619 L 1990.211 619.399 L 2037.914 619.399 L 2037.914 267.813 L 2078.979 263.763 Z  M 2165.722 592.847 L 2123.645 599.373 L 2123.645 619.399 L 2188.786 619.399 C 2205.888 619.399 2222.314 619.849 2237.952 620.861 C 2256.066 621.536 2268.554 621.874 2275.642 621.874 C 2312.095 621.874 2344.609 613.661 2373.411 597.347 C 2402.101 580.921 2424.715 557.407 2441.141 526.918 C 2457.454 496.316 2465.667 460.426 2465.667 419.248 C 2465.667 361.082 2450.479 315.966 2419.989 283.902 C 2389.612 251.725 2343.934 235.748 2283.068 235.748 C 2276.43 235.748 2269.004 235.861 2260.791 236.198 C 2252.578 236.536 2246.503 236.874 2242.453 237.211 C 2221.751 238.561 2203.525 239.236 2187.774 239.236 L 2124.657 239.236 L 2124.657 261.85 L 2165.722 265.788 L 2165.722 592.847 Z  M 2272.042 596.785 C 2251.341 596.785 2230.752 594.535 2210.388 589.809 L 2210.388 266.351 C 2228.164 262.975 2249.203 261.288 2273.617 261.288 C 2319.408 261.288 2355.072 275.689 2380.724 304.378 C 2406.263 333.18 2419.089 375.37 2419.089 430.836 C 2419.089 467.626 2412.451 498.453 2399.175 523.317 C 2386.012 548.294 2368.348 566.745 2346.072 578.784 C 2323.795 590.822 2299.156 596.785 2272.042 596.785 Z  M 2753.574 592.285 L 2703.396 599.373 L 2703.396 619.399 L 2850.893 619.399 L 2850.893 599.373 L 2798.239 592.285 L 2798.239 463.914 L 2899.496 267.813 L 2932.123 261.85 L 2932.123 239.236 L 2821.303 239.236 L 2821.303 261.85 L 2862.931 266.351 L 2790.139 413.285 L 2779.113 438.824 L 2766.625 413.735 L 2686.407 265.788 L 2724.997 261.85 L 2724.997 239.236 L 2606.639 239.236 L 2606.639 261.85 L 2635.216 265.788 L 2753.574 463.464 L 2753.574 592.285 Z  M 3220.705 259.488 C 3196.853 243.624 3169.064 235.748 3137.224 235.748 C 3105.835 235.748 3076.695 243.061 3050.031 257.8 C 3021.904 273.551 2999.403 297.065 2982.526 328.455 C 2965.65 359.957 2957.212 397.084 2957.212 439.837 C 2957.212 475.614 2963.963 507.679 2977.464 535.918 C 2991.077 564.158 3010.316 586.322 3035.18 602.298 C 3060.044 618.386 3088.959 626.374 3121.698 626.374 C 3153.763 626.374 3183.015 618.274 3209.454 601.848 C 3235.893 585.422 3256.82 561.683 3272.121 530.63 C 3287.534 499.578 3295.185 462.788 3295.185 420.261 C 3295.185 384.821 3288.772 353.206 3275.946 325.192 C 3263.008 297.29 3244.669 275.464 3220.705 259.488 Z  M 3064.319 281.089 C 3082.546 267.251 3103.81 260.275 3128.224 260.275 C 3152.638 260.275 3173.789 267.813 3191.678 282.889 C 3209.567 297.965 3223.067 318.104 3232.293 343.531 C 3241.519 368.957 3246.131 396.522 3246.131 426.336 C 3246.131 462.451 3241.406 493.728 3232.068 520.055 C 3222.73 546.494 3209.229 566.745 3191.678 580.809 C 3174.127 594.872 3153.313 601.848 3129.236 601.848 C 3104.485 601.848 3082.883 594.197 3064.319 579.009 C 3045.756 563.82 3031.467 543.456 3021.679 518.142 C 3011.778 492.715 3006.828 464.926 3006.828 434.887 C 3006.828 398.772 3011.891 367.495 3021.904 341.28 C 3031.917 315.066 3046.093 295.04 3064.319 281.089 Z  M 3691.436 261.85 L 3691.436 239.236 L 3575.103 239.236 L 3575.103 261.85 L 3618.756 266.351 L 3618.756 453.338 C 3618.756 552.682 3585.679 602.298 3519.412 602.298 C 3483.635 602.298 3455.958 591.61 3436.382 570.233 C 3416.805 548.857 3407.13 512.292 3407.13 460.426 L 3407.13 266.351 L 3450.22 261.85 L 3450.22 239.236 L 3323.874 239.236 L 3323.874 261.85 L 3362.464 265.788 L 3361.902 458.851 C 3361.902 515.779 3373.602 557.857 3396.779 585.309 C 3420.068 612.761 3458.208 626.374 3511.424 626.374 C 3555.527 626.374 3590.179 612.198 3615.493 583.734 C 3640.695 555.382 3653.296 511.954 3653.296 453.338 L 3653.296 266.351 L 3691.436 261.85 Z  M 3962.016 258.587 C 3939.852 243.286 3908.125 235.748 3866.948 235.748 C 3852.659 235.748 3836.12 236.424 3817.332 237.774 C 3807.319 238.674 3798.993 239.236 3792.243 239.236 L 3729.126 239.236 L 3729.126 264.325 L 3770.191 267.813 L 3770.191 592.847 L 3723.05 599.373 L 3723.05 619.399 L 3866.497 619.399 L 3866.497 599.373 L 3814.857 592.847 L 3814.857 453.9 C 3835.22 453.9 3849.959 453.675 3858.959 453.338 C 3874.035 452.1 3888.211 461.101 3901.6 480.452 C 3914.988 499.916 3930.064 526.918 3946.715 561.683 C 3956.728 582.496 3964.491 597.235 3969.779 606.123 C 3975.18 615.011 3980.017 619.399 3984.405 619.399 L 4053.035 619.399 L 4053.035 599.373 L 4025.47 592.847 C 4020.745 591.835 4015.682 586.997 4010.169 578.559 C 4004.657 570.008 3996.781 556.507 3986.318 538.168 C 3972.704 513.079 3960.441 492.828 3949.753 477.414 C 3939.065 462.113 3927.814 451.875 3916.113 446.812 L 3912.175 444.9 C 3937.49 436.799 3957.741 423.298 3972.817 404.285 C 3987.893 385.158 3995.431 362.994 3995.431 337.568 C 3995.431 300.103 3984.293 273.776 3962.016 258.587 Z  M 3847.484 260.838 C 3853.447 260.838 3857.834 260.613 3860.422 260.275 C 3892.262 258.925 3914.988 265.45 3928.714 279.851 C 3942.44 294.252 3949.303 315.179 3949.303 342.518 C 3949.303 371.32 3941.765 392.921 3926.689 407.547 C 3911.613 422.061 3890.237 429.261 3862.447 429.261 C 3839.721 429.261 3823.857 428.811 3814.857 427.799 L 3814.857 264.325 C 3820.819 262.638 3831.733 261.513 3847.484 260.838 Z  M 4132.803 618.161 C 4154.854 622.662 4177.243 624.912 4199.97 624.912 C 4236.759 624.912 4267.024 616.361 4290.763 599.373 C 4314.502 582.271 4326.428 556.507 4326.428 522.08 C 4326.428 504.416 4321.365 488.778 4311.127 475.164 C 4300.889 461.663 4288.625 450.188 4274.224 440.85 C 4259.824 431.511 4240.697 420.486 4216.621 407.772 C 4188.831 393.709 4167.68 380.433 4153.166 367.832 C 4138.54 355.344 4131.34 340.38 4131.34 322.942 C 4131.34 307.978 4135.278 295.602 4143.041 285.927 C 4150.916 276.139 4160.592 269.163 4171.955 264.775 C 4183.318 260.5 4194.457 258.25 4205.482 258.25 C 4218.196 258.25 4230.009 259.6 4240.922 262.3 C 4251.723 265 4260.161 268.938 4266.236 274.339 L 4283.788 321.929 L 4303.814 321.929 L 4303.814 254.762 C 4295.151 249.812 4282.663 245.312 4266.236 241.486 C 4249.81 237.661 4230.572 235.748 4208.52 235.748 C 4190.181 235.748 4171.955 239.011 4153.841 245.762 C 4135.84 252.4 4120.652 262.863 4108.501 277.151 C 4096.238 291.327 4090.162 309.103 4090.162 330.48 C 4090.162 347.918 4094.888 363.332 4104.226 376.608 C 4113.564 389.996 4125.265 401.472 4139.328 411.035 C 4153.391 420.486 4171.28 430.949 4192.994 442.312 C 4213.358 453.338 4229.559 462.901 4241.597 470.889 C 4253.636 478.99 4263.761 488.215 4271.974 498.791 C 4280.187 509.254 4284.238 521.292 4284.238 534.681 C 4284.238 557.07 4276.475 573.833 4260.949 585.084 C 4245.422 596.222 4226.971 601.848 4205.482 601.848 C 4188.831 601.848 4173.08 599.935 4158.342 596.11 C 4143.716 592.285 4131.79 585.647 4122.789 576.309 L 4108.276 527.143 L 4087.687 527.143 L 4087.687 604.323 C 4095.675 609.048 4110.751 613.661 4132.803 618.161 Z  M 4418.684 592.847 L 4376.606 599.373 L 4376.606 619.399 L 4647.862 619.399 L 4658.887 543.119 L 4636.836 537.606 L 4612.759 590.259 L 4462.787 594.31 L 4462.787 431.849 L 4556.618 433.312 L 4563.594 472.464 L 4587.22 472.464 L 4587.22 367.157 L 4563.594 367.157 L 4556.618 405.747 L 4462.787 407.772 L 4462.787 263.313 L 4602.296 266.351 L 4613.772 309.441 L 4639.424 309.441 L 4632.336 239.236 L 4377.619 239.236 L 4377.619 261.85 L 4418.684 265.788 L 4418.684 592.847 Z  M 4743.155 592.847 L 4701.078 599.373 L 4701.078 619.399 L 4956.807 619.399 L 4972.896 539.181 L 4952.307 529.168 L 4923.28 588.347 L 4787.371 593.86 L 4787.821 267.813 L 4832.486 264.325 L 4832.486 239.236 L 4702.09 239.236 L 4702.09 264.325 L 4743.155 267.813 L 4743.155 592.847 Z  M 5048.163 592.847 L 5004.96 599.373 L 5004.96 619.399 L 5165.508 619.399 L 5165.508 597.797 L 5092.716 592.847 L 5092.716 437.812 L 5201.623 439.837 L 5208.149 477.414 L 5233.688 477.414 L 5233.688 374.133 L 5210.624 374.133 L 5201.623 410.81 L 5092.716 412.723 L 5092.716 264.325 L 5239.763 267.363 L 5251.239 309.891 L 5273.853 309.441 L 5269.353 239.236 L 5006.985 239.236 L 5006.985 261.85 L 5048.163 265.788 L 5048.163 592.847 Z " fill="rgb(54,54,54)"/></g><rect x="1226.134" y="856.88" width="618.791" height="16.718" transform="matrix(1,0,0,1,0,0)" fill="rgb(54,54,54)"/><g><path d=" M 2135.872 776.565 L 2110.783 776.565 L 2110.783 852.057 L 2009.976 852.057 L 2009.976 776.565 L 1984.887 776.565 L 1984.887 952.077 L 2009.976 952.077 L 2009.976 873.884 L 2110.783 873.884 L 2110.783 952.077 L 2135.872 952.077 L 2135.872 776.565 Z  M 2276.169 831.469 C 2266.381 822.468 2252.317 817.968 2233.866 817.968 C 2223.178 817.968 2213.052 819.43 2203.601 822.355 C 2194.038 825.281 2185.825 829.443 2178.962 834.956 L 2188.976 853.07 C 2194.151 848.682 2200.564 845.194 2208.102 842.607 C 2215.64 840.019 2223.29 838.782 2231.166 838.782 C 2242.867 838.782 2251.755 841.482 2257.718 846.995 C 2263.793 852.507 2266.718 860.495 2266.718 870.846 L 2266.718 875.571 L 2228.578 875.571 C 2210.127 875.571 2196.513 879.172 2187.963 886.26 C 2179.525 893.348 2175.25 902.798 2175.25 914.499 C 2175.25 926.2 2179.637 935.65 2188.638 942.851 C 2197.526 949.939 2209.452 953.539 2224.415 953.539 C 2234.541 953.539 2243.429 951.964 2250.855 948.701 C 2258.28 945.439 2264.018 940.713 2267.956 934.525 L 2267.956 952.077 L 2290.795 952.077 L 2290.795 871.859 C 2290.795 853.97 2285.957 840.469 2276.169 831.469 Z  M 2252.205 928.9 C 2245.567 932.95 2237.579 934.975 2228.353 934.975 C 2219.24 934.975 2212.039 933.063 2206.864 929.237 C 2201.689 925.412 2198.989 920.124 2198.989 913.486 C 2198.989 899.761 2209.227 892.898 2229.591 892.898 L 2266.718 892.898 L 2266.718 911.461 C 2263.793 918.999 2258.843 924.737 2252.205 928.9 Z  M 2334.223 819.205 L 2334.223 952.077 L 2356.274 952.077 L 2437.504 855.32 L 2437.504 952.077 L 2461.581 952.077 L 2461.581 819.205 L 2439.755 819.205 L 2358.299 915.962 L 2358.299 819.205 L 2334.223 819.205 Z  M 2367.525 792.991 C 2374.388 798.841 2384.063 801.879 2396.439 801.879 C 2408.59 801.879 2418.266 798.841 2425.241 792.991 C 2432.217 787.028 2435.817 778.478 2436.042 767.227 L 2419.166 767.227 C 2419.053 773.415 2416.916 778.365 2412.753 782.19 C 2408.477 785.903 2402.965 787.816 2396.102 787.816 C 2389.239 787.816 2383.838 785.903 2379.676 782.19 C 2375.625 778.365 2373.488 773.415 2373.375 767.227 L 2357.062 767.227 C 2357.174 778.478 2360.662 787.028 2367.525 792.991 Z  M 2643.393 931.038 L 2623.142 931.038 L 2623.142 819.205 L 2520.085 819.205 L 2518.06 864.096 C 2516.822 885.135 2514.685 901.448 2511.534 912.924 C 2508.272 924.512 2502.421 930.475 2493.983 931.038 L 2486.895 931.038 L 2486.895 982.904 L 2509.734 982.904 L 2509.734 952.077 L 2620.892 952.077 L 2620.892 982.904 L 2643.393 982.904 L 2643.393 931.038 Z  M 2535.948 907.299 C 2538.086 896.385 2539.436 882.547 2540.111 865.783 L 2541.349 840.244 L 2599.065 840.244 L 2599.065 931.038 L 2524.585 931.038 C 2530.098 926.2 2533.811 918.212 2535.948 907.299 Z  M 2674.783 819.205 L 2674.783 952.077 L 2696.834 952.077 L 2778.064 855.32 L 2778.064 952.077 L 2802.141 952.077 L 2802.141 819.205 L 2780.315 819.205 L 2698.859 915.962 L 2698.859 819.205 L 2674.783 819.205 Z  M 2937.938 944.764 C 2948.513 950.614 2960.664 953.539 2974.165 953.539 C 2986.203 953.539 2997.004 951.064 3006.455 946.226 C 3015.793 941.276 3023.106 934.188 3028.394 924.962 L 3010.055 913.486 C 3005.892 919.787 3000.717 924.625 2994.529 927.775 C 2988.341 930.925 2981.478 932.5 2973.94 932.5 C 2965.277 932.5 2957.401 930.588 2950.426 926.762 C 2943.563 922.937 2938.163 917.424 2934.225 910.336 C 2930.287 903.248 2928.262 895.035 2928.262 885.585 C 2928.262 876.472 2930.287 868.258 2934.225 861.17 C 2938.163 854.083 2943.563 848.57 2950.426 844.744 C 2957.401 840.919 2965.277 839.007 2973.94 839.007 C 2981.478 839.007 2988.341 840.582 2994.529 843.732 C 3000.717 846.882 3005.892 851.72 3010.055 858.02 L 3028.394 846.207 C 3023.106 837.094 3015.793 830.006 3006.455 825.168 C 2997.004 820.33 2986.203 817.968 2974.165 817.968 C 2960.664 817.968 2948.513 820.78 2937.938 826.518 C 2927.362 832.369 2919.036 840.357 2912.961 850.595 C 2906.998 860.945 2903.96 872.534 2903.96 885.585 C 2903.96 898.635 2906.998 910.336 2912.961 920.574 C 2919.036 930.925 2927.362 938.913 2937.938 944.764 Z  M 3175.778 915.512 C 3175.778 898.298 3167.228 887.497 3150.014 883.109 C 3156.652 880.409 3161.827 876.584 3165.653 871.409 C 3169.365 866.346 3171.278 860.27 3171.278 853.295 C 3171.278 842.382 3166.89 834.056 3158.002 828.093 C 3149.114 822.13 3136.851 819.205 3121.1 819.205 L 3059.446 819.205 L 3059.446 952.077 L 3123.35 952.077 C 3140.788 952.077 3153.839 948.926 3162.615 942.513 C 3171.39 936.213 3175.778 927.212 3175.778 915.512 Z  M 3082.96 876.359 L 3082.96 837.769 L 3119.075 837.769 C 3137.863 837.769 3147.201 844.069 3147.201 856.783 C 3147.201 863.083 3144.839 868.033 3140.113 871.296 C 3135.276 874.671 3128.3 876.359 3119.075 876.359 L 3082.96 876.359 Z  M 3144.164 928.787 C 3139.213 931.938 3131.675 933.513 3121.662 933.513 L 3082.96 933.513 L 3082.96 893.685 L 3123.125 893.685 C 3133.025 893.685 3140.226 895.373 3144.839 898.635 C 3149.452 902.011 3151.702 907.074 3151.702 913.936 C 3151.702 920.687 3149.227 925.525 3144.164 928.787 Z  M 3234.732 944.764 C 3245.308 950.614 3257.121 953.539 3270.285 953.539 C 3283.56 953.539 3295.374 950.614 3305.837 944.764 C 3316.3 938.913 3324.513 930.925 3330.363 920.574 C 3336.326 910.336 3339.252 898.635 3339.252 885.585 C 3339.252 872.534 3336.326 860.945 3330.363 850.595 C 3324.513 840.357 3316.3 832.369 3305.837 826.518 C 3295.374 820.78 3283.56 817.968 3270.285 817.968 C 3257.121 817.968 3245.308 820.78 3234.732 826.518 C 3224.156 832.369 3215.943 840.357 3209.981 850.595 C 3204.13 860.945 3201.092 872.534 3201.092 885.585 C 3201.092 898.635 3204.13 910.336 3209.981 920.574 C 3215.943 930.925 3224.156 938.913 3234.732 944.764 Z  M 3293.236 926.65 C 3286.486 930.588 3278.835 932.5 3270.285 932.5 C 3261.846 932.5 3254.196 930.588 3247.446 926.65 C 3240.583 922.712 3235.295 917.199 3231.357 910.111 C 3227.419 903.023 3225.394 894.81 3225.394 885.585 C 3225.394 876.472 3227.419 868.258 3231.357 861.17 C 3235.295 854.083 3240.583 848.57 3247.446 844.744 C 3254.196 840.919 3261.846 839.007 3270.285 839.007 C 3278.835 839.007 3286.486 840.919 3293.236 844.744 C 3300.099 848.57 3305.387 854.083 3309.212 861.17 C 3313.037 868.258 3314.95 876.472 3314.95 885.585 C 3314.95 894.81 3313.037 903.023 3309.212 910.111 C 3305.387 917.199 3300.099 922.712 3293.236 926.65 Z  M 3374.129 819.205 L 3374.129 952.077 L 3396.18 952.077 L 3477.523 855.32 L 3477.523 952.077 L 3501.6 952.077 L 3501.6 819.205 L 3479.773 819.205 L 3398.205 915.962 L 3398.205 819.205 L 3374.129 819.205 Z  M 3407.544 792.991 C 3414.407 798.841 3423.97 801.879 3436.345 801.879 C 3448.609 801.879 3458.172 798.841 3465.147 792.991 C 3472.235 787.028 3475.836 778.478 3475.948 767.227 L 3459.185 767.227 C 3458.959 773.415 3456.822 778.365 3452.659 782.19 C 3448.496 785.903 3442.983 787.816 3436.12 787.816 C 3429.258 787.816 3423.745 785.903 3419.694 782.19 C 3415.532 778.365 3413.394 773.415 3413.281 767.227 L 3396.968 767.227 C 3397.193 778.478 3400.681 787.028 3407.544 792.991 Z  M 3636.946 944.764 C 3647.522 950.614 3659.335 953.539 3672.611 953.539 C 3685.774 953.539 3697.588 950.614 3708.051 944.764 C 3718.514 938.913 3726.727 930.925 3732.69 920.574 C 3738.541 910.336 3741.578 898.635 3741.578 885.585 C 3741.578 872.534 3738.541 860.945 3732.69 850.595 C 3726.727 840.357 3718.514 832.369 3708.051 826.518 C 3697.588 820.78 3685.774 817.968 3672.611 817.968 C 3659.335 817.968 3647.522 820.78 3636.946 826.518 C 3626.483 832.369 3618.158 840.357 3612.307 850.595 C 3606.344 860.945 3603.307 872.534 3603.307 885.585 C 3603.307 898.635 3606.344 910.336 3612.307 920.574 C 3618.158 930.925 3626.483 938.913 3636.946 944.764 Z  M 3695.563 926.65 C 3688.7 930.588 3681.049 932.5 3672.611 932.5 C 3664.061 932.5 3656.41 930.588 3649.66 926.65 C 3642.909 922.712 3637.509 917.199 3633.571 910.111 C 3629.633 903.023 3627.721 894.81 3627.721 885.585 C 3627.721 876.472 3629.633 868.258 3633.571 861.17 C 3637.509 854.083 3642.909 848.57 3649.66 844.744 C 3656.41 840.919 3664.061 839.007 3672.611 839.007 C 3681.049 839.007 3688.7 840.919 3695.563 844.744 C 3702.313 848.57 3707.601 854.083 3711.426 861.17 C 3715.251 868.258 3717.164 876.472 3717.164 885.585 C 3717.164 894.81 3715.251 903.023 3711.426 910.111 C 3707.601 917.199 3702.313 922.712 3695.563 926.65 Z  M 3877.15 831.919 C 3867.474 826.406 3856.448 823.706 3844.072 823.706 C 3832.934 823.706 3822.809 826.068 3813.808 830.681 C 3804.695 835.406 3797.382 841.932 3791.644 850.482 C 3792.882 833.269 3797.719 820.105 3806.27 810.88 C 3814.708 801.654 3827.759 795.129 3845.085 791.303 L 3901.001 779.265 L 3897.513 757.214 L 3836.872 770.714 C 3813.808 775.777 3796.594 786.016 3785.456 801.542 C 3774.205 816.955 3768.58 838.331 3768.58 865.558 C 3768.58 893.685 3774.768 915.399 3787.031 930.925 C 3799.295 946.339 3816.733 954.102 3839.347 954.102 C 3852.736 954.102 3864.661 951.289 3875.125 945.776 C 3885.475 940.263 3893.576 932.613 3899.426 922.6 C 3905.164 912.699 3908.089 901.223 3908.089 888.397 C 3908.089 875.796 3905.389 864.658 3899.876 854.87 C 3894.476 845.082 3886.938 837.431 3877.15 831.919 Z  M 3862.524 928.225 C 3855.886 932.05 3848.348 934.075 3839.797 934.075 C 3831.472 934.075 3823.934 932.05 3817.296 928.225 C 3810.545 924.4 3805.37 919.112 3801.545 912.361 C 3797.832 905.611 3795.919 897.848 3795.919 889.185 C 3795.919 875.909 3799.97 865.333 3808.07 857.233 C 3816.171 849.245 3826.746 845.194 3839.797 845.194 C 3852.848 845.194 3863.424 849.245 3871.412 857.233 C 3879.512 865.333 3883.45 875.909 3883.45 889.185 C 3883.45 897.848 3881.65 905.611 3877.937 912.361 C 3874.224 919.112 3869.162 924.4 3862.524 928.225 Z  M 4047.486 826.406 C 4037.248 820.78 4025.772 817.968 4012.834 817.968 C 4003.045 817.968 3993.932 819.768 3985.832 823.593 C 3977.619 827.306 3970.868 832.931 3965.468 840.244 L 3965.468 819.205 L 3942.404 819.205 L 3942.404 1000.68 L 3966.481 1000.68 L 3966.481 932.05 C 3971.993 939.026 3978.744 944.426 3986.619 948.026 C 3994.607 951.739 4003.383 953.539 4012.834 953.539 C 4025.772 953.539 4037.248 950.726 4047.486 945.101 C 4057.724 939.363 4065.712 931.375 4071.45 921.137 C 4077.188 910.786 4080.113 898.973 4080.113 885.585 C 4080.113 872.196 4077.188 860.495 4071.45 850.257 C 4065.712 840.019 4057.724 832.144 4047.486 826.406 Z  M 4033.76 926.65 C 4027.01 930.588 4019.359 932.5 4010.921 932.5 C 4002.483 932.5 3994.945 930.588 3988.082 926.65 C 3981.219 922.712 3975.819 917.199 3971.993 910.111 C 3968.168 903.023 3966.256 894.81 3966.256 885.585 C 3966.256 876.472 3968.168 868.371 3972.106 861.283 C 3976.044 854.308 3981.444 848.795 3988.195 844.857 C 3994.945 840.919 4002.483 839.007 4010.921 839.007 C 4019.359 839.007 4027.01 840.919 4033.76 844.744 C 4040.623 848.57 4045.911 854.083 4049.849 861.17 C 4053.786 868.258 4055.699 876.472 4055.699 885.585 C 4055.699 894.81 4053.786 903.023 4049.849 910.111 C 4045.911 917.199 4040.623 922.712 4033.76 926.65 Z  M 4203.309 831.469 C 4193.521 822.468 4179.457 817.968 4161.118 817.968 C 4150.43 817.968 4140.305 819.43 4130.741 822.355 C 4121.178 825.281 4112.965 829.443 4106.215 834.956 L 4116.228 853.07 C 4121.403 848.682 4127.704 845.194 4135.242 842.607 C 4142.78 840.019 4150.43 838.782 4158.306 838.782 C 4170.006 838.782 4178.895 841.482 4184.858 846.995 C 4190.933 852.507 4193.971 860.495 4193.971 870.846 L 4193.971 875.571 L 4155.831 875.571 C 4137.267 875.571 4123.766 879.172 4115.215 886.26 C 4106.665 893.348 4102.39 902.798 4102.39 914.499 C 4102.39 926.2 4106.89 935.65 4115.778 942.851 C 4124.779 949.939 4136.704 953.539 4151.555 953.539 C 4161.793 953.539 4170.569 951.964 4177.995 948.701 C 4185.42 945.439 4191.158 940.713 4195.208 934.525 L 4195.208 952.077 L 4218.047 952.077 L 4218.047 871.859 C 4218.047 853.97 4213.097 840.469 4203.309 831.469 Z  M 4179.345 928.9 C 4172.707 932.95 4164.719 934.975 4155.606 934.975 C 4146.38 934.975 4139.179 933.063 4134.004 929.237 C 4128.829 925.412 4126.241 920.124 4126.241 913.486 C 4126.241 899.761 4136.367 892.898 4156.843 892.898 L 4193.971 892.898 L 4193.971 911.461 C 4190.933 918.999 4186.095 924.737 4179.345 928.9 Z  M 4351.706 894.135 C 4346.868 888.96 4340.005 885.247 4331.117 882.884 C 4338.43 880.184 4344.281 876.246 4348.668 871.071 C 4353.056 865.896 4355.194 860.045 4355.194 853.52 C 4355.194 846.545 4352.719 840.244 4347.881 834.731 C 4343.043 829.218 4336.405 824.943 4327.855 821.905 C 4319.304 818.868 4309.741 817.405 4299.053 817.405 C 4281.276 817.405 4264.288 821.455 4248.087 829.668 L 4254.612 848.232 C 4269.351 841.369 4283.302 837.994 4296.465 837.994 C 4306.816 837.994 4315.141 839.682 4321.217 842.944 C 4327.292 846.32 4330.33 851.045 4330.33 857.008 C 4330.33 862.521 4327.742 866.908 4322.567 870.059 C 4317.391 873.209 4310.303 874.784 4301.303 874.784 L 4278.689 874.784 L 4278.689 892.11 L 4302.99 892.11 C 4312.891 892.11 4320.542 893.798 4325.942 897.173 C 4331.342 900.548 4334.155 905.273 4334.155 911.461 C 4334.155 918.099 4330.78 923.5 4323.917 927.325 C 4317.166 931.263 4308.166 933.288 4296.69 933.288 C 4288.364 933.288 4280.151 932.163 4271.938 929.913 C 4263.725 927.662 4256.412 924.512 4250.112 920.462 L 4242.799 938.801 C 4250.224 943.638 4258.55 947.351 4268.001 949.939 C 4277.451 952.527 4287.127 953.877 4297.027 953.877 C 4308.728 953.877 4319.304 952.077 4328.754 948.701 C 4338.205 945.214 4345.518 940.488 4350.918 934.413 C 4356.206 928.337 4358.906 921.362 4358.906 913.486 C 4358.906 905.723 4356.544 899.311 4351.706 894.135 Z " fill="rgb(54,54,54)"/></g><rect x="4522.019" y="856.88" width="618.791" height="16.718" transform="matrix(1,0,0,1,0,0)" fill="rgb(54,54,54)"/></g></svg>