<?xml version="1.0" encoding="UTF-8" standalone="no"?><!-- Generator: Gravit.io --><svg xmlns="http://www.w3.org/2000/svg" xmlns:xlink="http://www.w3.org/1999/xlink" style="isolation:isolate" viewBox="0 0 180 40" width="180pt" height="40pt"><defs><clipPath id="_clipPath_N6dDhhy7PzF3iVfhd8QxfT4bZqiE7vA5"><rect width="180" height="40"/></clipPath></defs><g clip-path="url(#_clipPath_N6dDhhy7PzF3iVfhd8QxfT4bZqiE7vA5)"><g><mask id="_mask_GKztElu9FCgf8bfw8xXPQ2ldFhXUHZHR" x="-200%" y="-200%" width="400%" height="400%"><rect x="-200%" y="-200%" width="400%" height="400%" style="fill:white;"/><path d=" M 18.51 4.394 L 31.004 11.608 C 31.626 11.967 32.009 12.63 32.009 13.348 L 32.009 27.776 C 32.009 28.494 31.626 29.158 31.004 29.517 L 18.51 36.731 C 17.888 37.09 17.122 37.09 16.5 36.731 L 4.005 29.517 C 3.383 29.158 3 28.494 3 27.776 L 3 13.348 C 3 12.63 3.383 11.967 4.005 11.608 L 16.5 4.394 C 17.122 4.035 17.888 4.035 18.51 4.394 Z " fill="black" stroke="none"/></mask><path d=" M 18.51 4.394 L 31.004 11.608 C 31.626 11.967 32.009 12.63 32.009 13.348 L 32.009 27.776 C 32.009 28.494 31.626 29.158 31.004 29.517 L 18.51 36.731 C 17.888 37.09 17.122 37.09 16.5 36.731 L 4.005 29.517 C 3.383 29.158 3 28.494 3 27.776 L 3 13.348 C 3 12.63 3.383 11.967 4.005 11.608 L 16.5 4.394 C 17.122 4.035 17.888 4.035 18.51 4.394 Z " fill="none"/><path d=" M 18.51 4.394 L 31.004 11.608 C 31.626 11.967 32.009 12.63 32.009 13.348 L 32.009 27.776 C 32.009 28.494 31.626 29.158 31.004 29.517 L 18.51 36.731 C 17.888 37.09 17.122 37.09 16.5 36.731 L 4.005 29.517 C 3.383 29.158 3 28.494 3 27.776 L 3 13.348 C 3 12.63 3.383 11.967 4.005 11.608 L 16.5 4.394 C 17.122 4.035 17.888 4.035 18.51 4.394 Z " fill="none" mask="url(#_mask_GKztElu9FCgf8bfw8xXPQ2ldFhXUHZHR)" vector-effect="non-scaling-stroke" stroke-width="2" stroke="rgb(54,54,54)" stroke-linejoin="miter" stroke-linecap="butt" stroke-miterlimit="4"/></g><g><path d=" M 9.636 25.369 L 8.228 25.581 L 8.228 26.234 L 13.46 26.234 L 13.46 25.532 L 11.089 25.369 L 11.089 20.316 L 14.636 20.38 L 14.848 21.606 L 15.683 21.606 L 15.683 18.241 L 14.932 18.241 L 14.636 19.432 L 11.089 19.5 L 11.089 14.66 L 15.88 14.758 L 16.256 16.147 L 16.991 16.131 L 16.844 13.844 L 8.293 13.844 L 8.293 14.576 L 9.636 14.709 L 9.636 25.369 Z  M 22.173 25.35 L 20.538 25.581 L 20.538 26.234 L 25.345 26.234 L 25.345 25.581 L 23.626 25.35 L 23.626 21.166 L 26.931 14.773 L 27.993 14.576 L 27.993 13.844 L 24.381 13.844 L 24.381 14.576 L 25.736 14.724 L 23.365 19.515 L 23.008 20.35 L 22.598 19.531 L 19.981 14.709 L 21.24 14.576 L 21.24 13.844 L 17.382 13.844 L 17.382 14.576 L 18.315 14.709 L 22.173 21.15 L 22.173 25.35 Z " fill="rgb(54,54,54)"/></g><g><path d=" M 43.193 19.933 L 41.736 20.153 L 41.736 20.829 L 47.15 20.829 L 47.15 20.1 L 44.699 19.933 L 44.699 14.706 L 48.368 14.774 L 48.588 16.041 L 49.449 16.041 L 49.449 12.559 L 48.671 12.559 L 48.368 13.795 L 44.699 13.86 L 44.699 8.856 L 49.654 8.959 L 50.041 10.392 L 50.803 10.377 L 50.651 8.01 L 41.805 8.01 L 41.805 8.773 L 43.193 8.905 L 43.193 19.933 Z  M 53.493 19.933 L 52.036 20.153 L 52.036 20.829 L 56.486 20.829 L 56.486 20.153 L 54.995 19.933 L 54.995 8.905 L 56.418 8.773 L 56.418 8.01 L 52.07 8.01 L 52.07 8.773 L 53.493 8.905 L 53.493 19.933 Z  M 70.537 8.837 L 70.537 8.01 L 66.664 8.01 L 66.664 8.837 L 68.053 8.989 L 68.053 19.44 L 66.869 17.194 L 61.22 8.01 L 58.345 8.01 L 58.345 8.856 L 59.714 8.974 L 59.714 19.933 L 58.295 20.153 L 58.295 20.829 L 62.453 20.829 L 62.453 20.153 L 60.814 19.933 L 60.814 9.751 L 61.979 12.069 L 67.544 20.829 L 69.153 20.829 L 69.153 8.974 L 70.537 8.837 Z  M 73.462 19.933 L 72.043 20.153 L 72.043 20.829 L 74.24 20.829 C 74.816 20.829 75.37 20.844 75.898 20.878 C 76.508 20.901 76.929 20.912 77.168 20.912 C 78.398 20.912 79.494 20.635 80.465 20.085 C 81.432 19.531 82.195 18.738 82.749 17.71 C 83.299 16.678 83.576 15.468 83.576 14.08 C 83.576 12.119 83.064 10.597 82.036 9.516 C 81.011 8.431 79.471 7.893 77.419 7.893 C 77.195 7.893 76.945 7.896 76.668 7.908 C 76.391 7.919 76.186 7.93 76.049 7.942 C 75.351 7.987 74.737 8.01 74.206 8.01 L 72.077 8.01 L 72.077 8.773 L 73.462 8.905 L 73.462 19.933 Z  M 77.047 20.066 C 76.349 20.066 75.655 19.99 74.968 19.831 L 74.968 8.924 C 75.568 8.811 76.277 8.754 77.1 8.754 C 78.644 8.754 79.847 9.239 80.712 10.207 C 81.573 11.178 82.005 12.6 82.005 14.471 C 82.005 15.711 81.781 16.751 81.334 17.589 C 80.89 18.431 80.294 19.053 79.543 19.459 C 78.792 19.865 77.961 20.066 77.047 20.066 Z  M 93.284 19.914 L 91.592 20.153 L 91.592 20.829 L 96.565 20.829 L 96.565 20.153 L 94.79 19.914 L 94.79 15.586 L 98.204 8.974 L 99.304 8.773 L 99.304 8.01 L 95.567 8.01 L 95.567 8.773 L 96.971 8.924 L 94.516 13.879 L 94.145 14.74 L 93.724 13.894 L 91.019 8.905 L 92.32 8.773 L 92.32 8.01 L 88.329 8.01 L 88.329 8.773 L 89.293 8.905 L 93.284 15.571 L 93.284 19.914 Z  M 109.034 8.693 C 108.23 8.158 107.293 7.893 106.22 7.893 C 105.161 7.893 104.179 8.139 103.28 8.636 C 102.331 9.167 101.573 9.96 101.003 11.018 C 100.434 12.081 100.15 13.333 100.15 14.774 C 100.15 15.98 100.378 17.062 100.833 18.014 C 101.292 18.966 101.941 19.713 102.779 20.252 C 103.617 20.794 104.592 21.064 105.696 21.064 C 106.777 21.064 107.764 20.791 108.655 20.237 C 109.547 19.683 110.252 18.883 110.768 17.835 C 111.288 16.788 111.546 15.548 111.546 14.114 C 111.546 12.919 111.33 11.853 110.897 10.908 C 110.461 9.968 109.843 9.232 109.034 8.693 Z  M 103.761 9.421 C 104.376 8.955 105.093 8.72 105.916 8.72 C 106.739 8.72 107.453 8.974 108.056 9.482 C 108.659 9.99 109.114 10.669 109.425 11.527 C 109.736 12.384 109.892 13.314 109.892 14.319 C 109.892 15.537 109.733 16.591 109.418 17.479 C 109.103 18.37 108.648 19.053 108.056 19.527 C 107.464 20.002 106.762 20.237 105.95 20.237 C 105.116 20.237 104.387 19.979 103.761 19.467 C 103.135 18.955 102.654 18.268 102.324 17.414 C 101.99 16.557 101.823 15.62 101.823 14.607 C 101.823 13.389 101.994 12.335 102.331 11.451 C 102.669 10.567 103.147 9.892 103.761 9.421 Z  M 124.907 8.773 L 124.907 8.01 L 120.984 8.01 L 120.984 8.773 L 122.456 8.924 L 122.456 15.229 C 122.456 18.579 121.341 20.252 119.106 20.252 C 117.9 20.252 116.967 19.892 116.307 19.171 C 115.647 18.45 115.32 17.217 115.32 15.468 L 115.32 8.924 L 116.773 8.773 L 116.773 8.01 L 112.513 8.01 L 112.513 8.773 L 113.814 8.905 L 113.795 15.415 C 113.795 17.335 114.19 18.754 114.971 19.679 C 115.757 20.605 117.043 21.064 118.837 21.064 C 120.324 21.064 121.493 20.586 122.346 19.626 C 123.196 18.67 123.621 17.206 123.621 15.229 L 123.621 8.924 L 124.907 8.773 Z  M 134.03 8.663 C 133.283 8.147 132.213 7.893 130.825 7.893 C 130.343 7.893 129.785 7.915 129.152 7.961 C 128.814 7.991 128.533 8.01 128.306 8.01 L 126.178 8.01 L 126.178 8.856 L 127.562 8.974 L 127.562 19.933 L 125.973 20.153 L 125.973 20.829 L 130.81 20.829 L 130.81 20.153 L 129.068 19.933 L 129.068 15.248 C 129.755 15.248 130.252 15.241 130.555 15.229 C 131.064 15.188 131.542 15.491 131.993 16.144 C 132.445 16.8 132.953 17.71 133.514 18.883 C 133.852 19.584 134.114 20.081 134.292 20.381 C 134.474 20.681 134.637 20.829 134.785 20.829 L 137.099 20.829 L 137.099 20.153 L 136.17 19.933 C 136.011 19.899 135.84 19.736 135.654 19.452 C 135.468 19.163 135.203 18.708 134.85 18.09 C 134.391 17.244 133.977 16.561 133.617 16.041 C 133.256 15.525 132.877 15.18 132.483 15.009 L 132.35 14.945 C 133.203 14.672 133.886 14.216 134.395 13.575 C 134.903 12.93 135.157 12.183 135.157 11.326 C 135.157 10.062 134.781 9.175 134.03 8.663 Z  M 130.168 8.738 C 130.37 8.738 130.517 8.731 130.605 8.72 C 131.678 8.674 132.445 8.894 132.907 9.38 C 133.37 9.865 133.602 10.571 133.602 11.493 C 133.602 12.464 133.348 13.192 132.839 13.685 C 132.331 14.175 131.61 14.417 130.673 14.417 C 129.907 14.417 129.372 14.402 129.068 14.368 L 129.068 8.856 C 129.269 8.799 129.637 8.761 130.168 8.738 Z  M 139.789 20.787 C 140.533 20.939 141.287 21.014 142.054 21.014 C 143.294 21.014 144.315 20.726 145.115 20.153 C 145.916 19.577 146.318 18.708 146.318 17.547 C 146.318 16.952 146.147 16.424 145.802 15.965 C 145.457 15.51 145.043 15.123 144.558 14.808 C 144.072 14.493 143.427 14.122 142.615 13.693 C 141.678 13.219 140.965 12.771 140.476 12.346 C 139.982 11.925 139.74 11.421 139.74 10.833 C 139.74 10.328 139.872 9.911 140.134 9.584 C 140.4 9.254 140.726 9.019 141.109 8.871 C 141.492 8.727 141.868 8.651 142.24 8.651 C 142.668 8.651 143.067 8.697 143.435 8.788 C 143.799 8.879 144.083 9.012 144.288 9.194 L 144.88 10.798 L 145.555 10.798 L 145.555 8.534 C 145.263 8.367 144.842 8.215 144.288 8.086 C 143.734 7.957 143.086 7.893 142.342 7.893 C 141.724 7.893 141.109 8.003 140.498 8.23 C 139.891 8.454 139.379 8.807 138.97 9.289 C 138.556 9.767 138.351 10.366 138.351 11.087 C 138.351 11.675 138.511 12.194 138.825 12.642 C 139.14 13.094 139.535 13.48 140.009 13.803 C 140.483 14.122 141.086 14.474 141.819 14.858 C 142.505 15.229 143.051 15.552 143.457 15.821 C 143.863 16.094 144.205 16.405 144.482 16.762 C 144.759 17.115 144.895 17.521 144.895 17.972 C 144.895 18.727 144.633 19.292 144.11 19.672 C 143.586 20.047 142.964 20.237 142.24 20.237 C 141.678 20.237 141.147 20.172 140.65 20.043 C 140.157 19.914 139.755 19.691 139.451 19.376 L 138.962 17.718 L 138.268 17.718 L 138.268 20.32 C 138.537 20.48 139.045 20.635 139.789 20.787 Z  M 149.428 19.933 L 148.01 20.153 L 148.01 20.829 L 157.156 20.829 L 157.528 18.257 L 156.784 18.071 L 155.972 19.846 L 150.916 19.983 L 150.916 14.505 L 154.079 14.554 L 154.315 15.874 L 155.111 15.874 L 155.111 12.323 L 154.315 12.323 L 154.079 13.625 L 150.916 13.693 L 150.916 8.822 L 155.62 8.924 L 156.007 10.377 L 156.871 10.377 L 156.632 8.01 L 148.044 8.01 L 148.044 8.773 L 149.428 8.905 L 149.428 19.933 Z  M 160.369 19.933 L 158.95 20.153 L 158.95 20.829 L 167.573 20.829 L 168.116 18.124 L 167.421 17.786 L 166.443 19.782 L 161.86 19.967 L 161.875 8.974 L 163.381 8.856 L 163.381 8.01 L 158.984 8.01 L 158.984 8.856 L 160.369 8.974 L 160.369 19.933 Z  M 170.654 19.933 L 169.197 20.153 L 169.197 20.829 L 174.61 20.829 L 174.61 20.1 L 172.156 19.933 L 172.156 14.706 L 175.828 14.774 L 176.048 16.041 L 176.909 16.041 L 176.909 12.559 L 176.131 12.559 L 175.828 13.795 L 172.156 13.86 L 172.156 8.856 L 177.114 8.959 L 177.501 10.392 L 178.263 10.377 L 178.112 8.01 L 169.265 8.01 L 169.265 8.773 L 170.654 8.905 L 170.654 19.933 Z " fill="rgb(54,54,54)"/></g><rect x="41.781" y="29.932" width="20.865" height="0.564" transform="matrix(1,0,0,1,0,0)" fill="rgb(54,54,54)"/><g><path d=" M 75.743 27.224 L 74.897 27.224 L 74.897 29.769 L 71.498 29.769 L 71.498 27.224 L 70.652 27.224 L 70.652 33.142 L 71.498 33.142 L 71.498 30.505 L 74.897 30.505 L 74.897 33.142 L 75.743 33.142 L 75.743 27.224 Z  M 80.474 29.075 C 80.144 28.772 79.67 28.62 79.047 28.62 C 78.687 28.62 78.346 28.669 78.027 28.768 C 77.705 28.866 77.428 29.007 77.196 29.193 L 77.534 29.803 C 77.708 29.656 77.925 29.538 78.179 29.451 C 78.433 29.363 78.691 29.322 78.956 29.322 C 79.351 29.322 79.651 29.413 79.852 29.599 C 80.057 29.785 80.155 30.054 80.155 30.403 L 80.155 30.562 L 78.869 30.562 C 78.247 30.562 77.788 30.684 77.5 30.923 C 77.215 31.162 77.071 31.48 77.071 31.875 C 77.071 32.269 77.219 32.588 77.522 32.831 C 77.822 33.07 78.224 33.191 78.729 33.191 C 79.07 33.191 79.37 33.138 79.62 33.028 C 79.871 32.918 80.064 32.759 80.197 32.55 L 80.197 33.142 L 80.967 33.142 L 80.967 30.437 C 80.967 29.834 80.804 29.379 80.474 29.075 Z  M 79.666 32.36 C 79.442 32.497 79.173 32.565 78.862 32.565 C 78.554 32.565 78.312 32.501 78.137 32.372 C 77.962 32.243 77.871 32.064 77.871 31.841 C 77.871 31.378 78.217 31.146 78.903 31.146 L 80.155 31.146 L 80.155 31.772 C 80.057 32.027 79.89 32.22 79.666 32.36 Z  M 82.431 28.662 L 82.431 33.142 L 83.175 33.142 L 85.914 29.879 L 85.914 33.142 L 86.726 33.142 L 86.726 28.662 L 85.99 28.662 L 83.243 31.924 L 83.243 28.662 L 82.431 28.662 Z  M 83.554 27.778 C 83.786 27.975 84.112 28.077 84.529 28.077 C 84.939 28.077 85.265 27.975 85.5 27.778 C 85.736 27.577 85.857 27.288 85.865 26.909 L 85.295 26.909 C 85.292 27.118 85.22 27.285 85.079 27.414 C 84.935 27.539 84.749 27.603 84.518 27.603 C 84.286 27.603 84.104 27.539 83.964 27.414 C 83.827 27.285 83.755 27.118 83.751 26.909 L 83.201 26.909 C 83.205 27.288 83.323 27.577 83.554 27.778 Z  M 92.856 32.432 L 92.173 32.432 L 92.173 28.662 L 88.698 28.662 L 88.63 30.175 C 88.588 30.885 88.516 31.435 88.41 31.822 C 88.3 32.212 88.103 32.413 87.818 32.432 L 87.579 32.432 L 87.579 34.181 L 88.349 34.181 L 88.349 33.142 L 92.097 33.142 L 92.097 34.181 L 92.856 34.181 L 92.856 32.432 Z  M 89.233 31.632 C 89.305 31.264 89.351 30.797 89.374 30.232 L 89.415 29.371 L 91.361 29.371 L 91.361 32.432 L 88.85 32.432 C 89.036 32.269 89.161 32 89.233 31.632 Z  M 93.914 28.662 L 93.914 33.142 L 94.658 33.142 L 97.397 29.879 L 97.397 33.142 L 98.209 33.142 L 98.209 28.662 L 97.473 28.662 L 94.726 31.924 L 94.726 28.662 L 93.914 28.662 Z  M 102.788 32.895 C 103.144 33.093 103.554 33.191 104.009 33.191 C 104.415 33.191 104.779 33.108 105.098 32.945 C 105.413 32.778 105.659 32.539 105.838 32.228 L 105.219 31.841 C 105.079 32.053 104.904 32.216 104.696 32.322 C 104.487 32.429 104.256 32.482 104.002 32.482 C 103.709 32.482 103.444 32.417 103.209 32.288 C 102.977 32.159 102.795 31.973 102.662 31.734 C 102.53 31.495 102.461 31.219 102.461 30.9 C 102.461 30.593 102.53 30.316 102.662 30.077 C 102.795 29.838 102.977 29.652 103.209 29.523 C 103.444 29.394 103.709 29.329 104.002 29.329 C 104.256 29.329 104.487 29.382 104.696 29.489 C 104.904 29.595 105.079 29.758 105.219 29.97 L 105.838 29.572 C 105.659 29.265 105.413 29.026 105.098 28.863 C 104.779 28.7 104.415 28.62 104.009 28.62 C 103.554 28.62 103.144 28.715 102.788 28.908 C 102.431 29.105 102.15 29.375 101.945 29.72 C 101.744 30.069 101.642 30.46 101.642 30.9 C 101.642 31.34 101.744 31.734 101.945 32.08 C 102.15 32.429 102.431 32.698 102.788 32.895 Z  M 110.807 31.909 C 110.807 31.329 110.519 30.964 109.939 30.816 C 110.162 30.725 110.337 30.596 110.466 30.422 C 110.591 30.251 110.656 30.046 110.656 29.811 C 110.656 29.443 110.508 29.162 110.208 28.961 C 109.908 28.76 109.495 28.662 108.964 28.662 L 106.885 28.662 L 106.885 33.142 L 109.039 33.142 C 109.627 33.142 110.068 33.036 110.363 32.819 C 110.659 32.607 110.807 32.303 110.807 31.909 Z  M 107.678 30.589 L 107.678 29.288 L 108.895 29.288 C 109.529 29.288 109.844 29.5 109.844 29.929 C 109.844 30.141 109.764 30.308 109.605 30.418 C 109.442 30.532 109.206 30.589 108.895 30.589 L 107.678 30.589 Z  M 109.741 32.357 C 109.574 32.463 109.32 32.516 108.983 32.516 L 107.678 32.516 L 107.678 31.173 L 109.032 31.173 C 109.366 31.173 109.608 31.23 109.764 31.34 C 109.92 31.454 109.995 31.624 109.995 31.856 C 109.995 32.083 109.912 32.247 109.741 32.357 Z  M 112.795 32.895 C 113.152 33.093 113.55 33.191 113.994 33.191 C 114.441 33.191 114.84 33.093 115.193 32.895 C 115.545 32.698 115.822 32.429 116.02 32.08 C 116.221 31.734 116.319 31.34 116.319 30.9 C 116.319 30.46 116.221 30.069 116.02 29.72 C 115.822 29.375 115.545 29.105 115.193 28.908 C 114.84 28.715 114.441 28.62 113.994 28.62 C 113.55 28.62 113.152 28.715 112.795 28.908 C 112.438 29.105 112.162 29.375 111.961 29.72 C 111.763 30.069 111.661 30.46 111.661 30.9 C 111.661 31.34 111.763 31.734 111.961 32.08 C 112.162 32.429 112.438 32.698 112.795 32.895 Z  M 114.768 32.284 C 114.54 32.417 114.282 32.482 113.994 32.482 C 113.709 32.482 113.451 32.417 113.224 32.284 C 112.992 32.152 112.814 31.966 112.681 31.727 C 112.549 31.488 112.48 31.211 112.48 30.9 C 112.48 30.593 112.549 30.316 112.681 30.077 C 112.814 29.838 112.992 29.652 113.224 29.523 C 113.451 29.394 113.709 29.329 113.994 29.329 C 114.282 29.329 114.54 29.394 114.768 29.523 C 114.999 29.652 115.177 29.838 115.306 30.077 C 115.435 30.316 115.5 30.593 115.5 30.9 C 115.5 31.211 115.435 31.488 115.306 31.727 C 115.177 31.966 114.999 32.152 114.768 32.284 Z  M 117.495 28.662 L 117.495 33.142 L 118.239 33.142 L 120.982 29.879 L 120.982 33.142 L 121.793 33.142 L 121.793 28.662 L 121.057 28.662 L 118.307 31.924 L 118.307 28.662 L 117.495 28.662 Z  M 118.622 27.778 C 118.853 27.975 119.176 28.077 119.593 28.077 C 120.007 28.077 120.329 27.975 120.564 27.778 C 120.803 27.577 120.925 27.288 120.929 26.909 L 120.363 26.909 C 120.356 27.118 120.284 27.285 120.143 27.414 C 120.003 27.539 119.817 27.603 119.586 27.603 C 119.354 27.603 119.168 27.539 119.032 27.414 C 118.891 27.285 118.819 27.118 118.815 26.909 L 118.265 26.909 C 118.273 27.288 118.391 27.577 118.622 27.778 Z  M 126.357 32.895 C 126.714 33.093 127.112 33.191 127.56 33.191 C 128.004 33.191 128.402 33.093 128.755 32.895 C 129.107 32.698 129.384 32.429 129.585 32.08 C 129.783 31.734 129.885 31.34 129.885 30.9 C 129.885 30.46 129.783 30.069 129.585 29.72 C 129.384 29.375 129.107 29.105 128.755 28.908 C 128.402 28.715 128.004 28.62 127.56 28.62 C 127.112 28.62 126.714 28.715 126.357 28.908 C 126.004 29.105 125.724 29.375 125.526 29.72 C 125.325 30.069 125.223 30.46 125.223 30.9 C 125.223 31.34 125.325 31.734 125.526 32.08 C 125.724 32.429 126.004 32.698 126.357 32.895 Z  M 128.334 32.284 C 128.102 32.417 127.844 32.482 127.56 32.482 C 127.271 32.482 127.013 32.417 126.786 32.284 C 126.558 32.152 126.376 31.966 126.243 31.727 C 126.111 31.488 126.046 31.211 126.046 30.9 C 126.046 30.593 126.111 30.316 126.243 30.077 C 126.376 29.838 126.558 29.652 126.786 29.523 C 127.013 29.394 127.271 29.329 127.56 29.329 C 127.844 29.329 128.102 29.394 128.334 29.523 C 128.561 29.652 128.739 29.838 128.868 30.077 C 128.997 30.316 129.062 30.593 129.062 30.9 C 129.062 31.211 128.997 31.488 128.868 31.727 C 128.739 31.966 128.561 32.152 128.334 32.284 Z  M 134.456 29.09 C 134.13 28.904 133.758 28.813 133.341 28.813 C 132.966 28.813 132.624 28.893 132.321 29.049 C 132.013 29.208 131.767 29.428 131.573 29.716 C 131.615 29.136 131.778 28.692 132.066 28.381 C 132.351 28.07 132.791 27.85 133.375 27.721 L 135.261 27.315 L 135.143 26.571 L 133.098 27.027 C 132.321 27.197 131.74 27.543 131.365 28.066 C 130.985 28.586 130.796 29.307 130.796 30.225 C 130.796 31.173 131.004 31.905 131.418 32.429 C 131.831 32.948 132.419 33.21 133.182 33.21 C 133.633 33.21 134.035 33.115 134.388 32.929 C 134.737 32.744 135.01 32.486 135.208 32.148 C 135.401 31.814 135.5 31.427 135.5 30.995 C 135.5 30.57 135.409 30.194 135.223 29.864 C 135.041 29.534 134.786 29.276 134.456 29.09 Z  M 133.963 32.338 C 133.739 32.467 133.485 32.535 133.197 32.535 C 132.916 32.535 132.662 32.467 132.438 32.338 C 132.211 32.209 132.036 32.03 131.907 31.803 C 131.782 31.575 131.717 31.313 131.717 31.021 C 131.717 30.574 131.854 30.217 132.127 29.944 C 132.4 29.675 132.757 29.538 133.197 29.538 C 133.637 29.538 133.994 29.675 134.263 29.944 C 134.536 30.217 134.669 30.574 134.669 31.021 C 134.669 31.313 134.608 31.575 134.483 31.803 C 134.358 32.03 134.187 32.209 133.963 32.338 Z  M 140.2 28.904 C 139.855 28.715 139.468 28.62 139.031 28.62 C 138.701 28.62 138.394 28.681 138.121 28.81 C 137.844 28.935 137.616 29.124 137.434 29.371 L 137.434 28.662 L 136.657 28.662 L 136.657 34.781 L 137.468 34.781 L 137.468 32.467 C 137.654 32.702 137.882 32.884 138.148 33.005 C 138.417 33.13 138.713 33.191 139.031 33.191 C 139.468 33.191 139.855 33.096 140.2 32.907 C 140.545 32.713 140.814 32.444 141.008 32.099 C 141.201 31.75 141.3 31.351 141.3 30.9 C 141.3 30.448 141.201 30.054 141.008 29.709 C 140.814 29.363 140.545 29.098 140.2 28.904 Z  M 139.737 32.284 C 139.509 32.417 139.251 32.482 138.967 32.482 C 138.682 32.482 138.428 32.417 138.197 32.284 C 137.965 32.152 137.783 31.966 137.654 31.727 C 137.525 31.488 137.461 31.211 137.461 30.9 C 137.461 30.593 137.525 30.319 137.658 30.08 C 137.791 29.845 137.973 29.659 138.201 29.527 C 138.428 29.394 138.682 29.329 138.967 29.329 C 139.251 29.329 139.509 29.394 139.737 29.523 C 139.968 29.652 140.147 29.838 140.28 30.077 C 140.412 30.316 140.477 30.593 140.477 30.9 C 140.477 31.211 140.412 31.488 140.28 31.727 C 140.147 31.966 139.968 32.152 139.737 32.284 Z  M 145.454 29.075 C 145.124 28.772 144.65 28.62 144.031 28.62 C 143.671 28.62 143.33 28.669 143.007 28.768 C 142.685 28.866 142.408 29.007 142.18 29.193 L 142.518 29.803 C 142.692 29.656 142.905 29.538 143.159 29.451 C 143.413 29.363 143.671 29.322 143.937 29.322 C 144.331 29.322 144.631 29.413 144.832 29.599 C 145.037 29.785 145.139 30.054 145.139 30.403 L 145.139 30.562 L 143.853 30.562 C 143.227 30.562 142.772 30.684 142.484 30.923 C 142.195 31.162 142.051 31.48 142.051 31.875 C 142.051 32.269 142.203 32.588 142.503 32.831 C 142.806 33.07 143.208 33.191 143.709 33.191 C 144.054 33.191 144.35 33.138 144.6 33.028 C 144.851 32.918 145.044 32.759 145.181 32.55 L 145.181 33.142 L 145.951 33.142 L 145.951 30.437 C 145.951 29.834 145.784 29.379 145.454 29.075 Z  M 144.646 32.36 C 144.422 32.497 144.153 32.565 143.845 32.565 C 143.534 32.565 143.292 32.501 143.117 32.372 C 142.943 32.243 142.855 32.064 142.855 31.841 C 142.855 31.378 143.197 31.146 143.887 31.146 L 145.139 31.146 L 145.139 31.772 C 145.037 32.027 144.874 32.22 144.646 32.36 Z  M 150.458 31.188 C 150.295 31.014 150.063 30.888 149.763 30.809 C 150.01 30.718 150.207 30.585 150.355 30.41 C 150.503 30.236 150.575 30.039 150.575 29.819 C 150.575 29.583 150.492 29.371 150.329 29.185 C 150.166 28.999 149.942 28.855 149.653 28.753 C 149.365 28.65 149.043 28.601 148.682 28.601 C 148.083 28.601 147.51 28.738 146.964 29.014 L 147.184 29.64 C 147.681 29.409 148.151 29.295 148.595 29.295 C 148.944 29.295 149.225 29.352 149.43 29.462 C 149.634 29.576 149.737 29.735 149.737 29.936 C 149.737 30.122 149.65 30.27 149.475 30.376 C 149.301 30.483 149.062 30.536 148.758 30.536 L 147.996 30.536 L 147.996 31.12 L 148.815 31.12 C 149.149 31.12 149.407 31.177 149.589 31.291 C 149.771 31.404 149.866 31.564 149.866 31.772 C 149.866 31.996 149.752 32.178 149.521 32.307 C 149.293 32.44 148.99 32.508 148.603 32.508 C 148.322 32.508 148.045 32.47 147.768 32.395 C 147.491 32.319 147.245 32.212 147.032 32.076 L 146.786 32.694 C 147.036 32.857 147.317 32.983 147.635 33.07 C 147.954 33.157 148.28 33.203 148.614 33.203 C 149.009 33.203 149.365 33.142 149.684 33.028 C 150.002 32.91 150.249 32.751 150.431 32.546 C 150.609 32.341 150.7 32.106 150.7 31.841 C 150.7 31.579 150.621 31.363 150.458 31.188 Z " fill="rgb(54,54,54)"/></g><rect x="157.296" y="29.932" width="20.865" height="0.564" transform="matrix(1,0,0,1,0,0)" fill="rgb(54,54,54)"/></g></svg>